<svg width="100" height="100" xmlns="http://www.w3.org/2000/svg">

 <g>
  <title>background</title>
  <rect fill="none" id="canvas_background" height="102" width="102" y="-1" x="-1"/>
 </g>
 <g>
  <title>Layer 1</title>
  <path fill="#5b5a6c" id="svg_1" d="m94.8,26.2c-2.4,-8.6 -10.4,-14.9 -19.9,-14.5c-7.8,0.3 -14.6,5.4 -17.5,12.3c-2.1,-1.4 -4.7,-2.2 -7.4,-2.2c-2.7,0 -5.2,0.8 -7.4,2.2c-3,-7.2 -10.1,-12.3 -18.3,-12.3c-9.1,0 -16.7,6.1 -19.1,14.5c-0.4,1.3 -1.6,2.2 -2.9,2.2l-1.8,0l0,6.2l1.8,0c1.4,0 2.6,0.9 2.9,2.2c2.4,8.6 10.4,14.9 19.9,14.5c9.8,-0.4 18,-8.2 18.9,-18c0.9,-2.4 3.3,-4.1 6,-4.1c2.7,0 5,1.7 6,4c0.9,10.1 9.4,18.1 19.7,18.1c9.1,0 16.7,-6.1 19.1,-14.5c0.4,-1.3 1.6,-2.2 2.9,-2.2l1.8,0l0,-6.2l-1.8,0c-1.3,0 -2.6,-0.9 -2.9,-2.2zm-70.5,19.1c-7.6,0 -13.8,-6.2 -13.8,-13.8c0,-7.6 6.2,-13.8 13.8,-13.8c7.6,0 13.8,6.2 13.8,13.8c0,7.6 -6.2,13.8 -13.8,13.8zm51.4,0c-7.6,0 -13.8,-6.2 -13.8,-13.8c0,-7.6 6.2,-13.8 13.8,-13.8c7.6,0 13.8,6.2 13.8,13.8c0,7.6 -6.2,13.8 -13.8,13.8zm22.8,22.8c-2.4,7.4 -8.6,19.3 -23.8,20.1c-12.1,0.6 -20.4,-4.9 -24.7,-11c-4.3,6.1 -12.6,11.6 -24.7,11c-15.2,-0.7 -21.4,-12.6 -23.8,-20.1c-0.2,-0.6 -1.1,-3.7 1.6,-2c0.3,0.2 0.6,0.4 0.9,0.7c0,0 0,0 0,0l0,0c1.6,1 3.7,1.8 6.5,2c8.2,0.4 15.5,-13.7 27,-13.1c3,0.1 7,0.8 12.5,6.3c5.5,-5.5 9.6,-6.2 12.5,-6.3c11.5,-0.6 18.7,13.6 27,13.1c2.8,-0.1 5,-1 6.5,-2l0,0c0,0 0,0 0,0c0.3,-0.2 0.6,-0.4 0.9,-0.7c2.7,-1.7 1.8,1.4 1.6,2z"/>
 </g>
</svg>