<?xml version="1.0" standalone="no"?>
<!DOCTYPE svg PUBLIC "-//W3C//DTD SVG 20010904//EN"
 "http://www.w3.org/TR/2001/REC-SVG-20010904/DTD/svg10.dtd">
<svg version="1.0" xmlns="http://www.w3.org/2000/svg"
 width="700.000000pt" height="700.000000pt" viewBox="0 0 700.000000 700.000000"
 preserveAspectRatio="xMidYMid meet">
<metadata>
Created by potrace 1.11, written by Peter Selinger 2001-2013
</metadata>
<g transform="translate(0.000000,700.000000) scale(0.100000,-0.100000)"
fill="#000000" stroke="none">
<path d="M1569 6176 c-2 -2 -31 -7 -64 -11 -315 -35 -655 -226 -877 -495 -40
-49 -157 -222 -159 -235 0 -2 -15 -37 -33 -77 -18 -40 -43 -104 -56 -143 -30
-91 -66 -145 -116 -172 -49 -27 -69 -31 -159 -32 l-70 -1 0 -215 c0 -208 1
-215 20 -215 129 -2 174 -8 208 -29 58 -36 81 -72 121 -187 175 -509 574 -848
1106 -940 98 -17 369 -12 472 9 427 87 800 378 988 772 36 76 77 183 84 222 2
10 9 36 15 58 10 41 15 66 26 144 9 62 44 127 99 183 60 62 107 92 185 118
186 62 378 0 501 -159 49 -64 58 -82 65 -132 24 -175 65 -309 139 -459 179
-360 502 -624 887 -724 131 -34 154 -37 324 -41 116 -3 173 0 254 15 105 19
221 51 276 75 127 56 169 78 231 117 274 176 482 444 584 752 27 83 40 107 75
141 52 50 88 62 188 61 42 -1 78 1 78 4 1 3 2 101 3 218 l1 212 -70 0 c-85 0
-139 14 -183 47 -45 34 -66 70 -97 172 -101 326 -351 622 -666 790 -208 110
-377 153 -624 157 -182 3 -248 -6 -409 -51 -160 -46 -387 -167 -496 -265 -172
-154 -272 -281 -362 -456 l-42 -81 -70 37 c-89 47 -200 85 -291 100 -70 11
-244 15 -287 6 -144 -30 -238 -63 -332 -117 l-53 -29 -41 83 c-87 175 -241
368 -372 466 -19 14 -37 28 -40 32 -3 3 -33 24 -67 48 -139 93 -331 173 -501
207 -67 14 -383 30 -393 20z m301 -432 c338 -64 602 -283 734 -607 15 -38 37
-123 54 -207 12 -67 6 -244 -13 -330 -82 -384 -393 -687 -777 -757 -81 -14
-308 -8 -383 11 -290 72 -523 259 -650 521 -145 297 -129 632 42 920 42 71
181 225 248 275 120 90 291 159 455 183 62 9 223 4 290 -9z m3617 -4 c207 -43
369 -134 517 -291 241 -256 321 -624 210 -959 -111 -334 -406 -585 -759 -648
-54 -9 -258 -9 -318 1 -290 47 -562 249 -696 517 -115 228 -137 466 -64 710
76 258 256 471 500 593 174 87 415 118 610 77z"/>
<path d="M2460 3097 c-3 -2 -25 -7 -50 -10 -77 -10 -232 -64 -341 -120 -138
-70 -270 -159 -464 -312 -350 -275 -437 -336 -560 -395 -144 -69 -250 -86
-400 -64 -146 22 -303 80 -379 142 -35 28 -120 72 -139 72 -50 0 -52 -86 -6
-221 192 -566 525 -979 962 -1193 89 -44 278 -111 342 -122 17 -2 37 -7 45 -9
8 -2 35 -7 60 -10 24 -4 47 -8 50 -10 12 -8 192 -19 310 -19 142 0 282 9 361
24 30 6 70 13 89 16 19 3 83 18 142 35 391 109 722 322 954 614 33 41 62 73
66 72 3 -1 27 -29 53 -62 59 -77 182 -202 265 -270 233 -189 567 -343 850
-390 19 -3 42 -8 50 -10 20 -5 106 -15 205 -24 125 -12 381 -4 487 14 16 3 41
7 58 10 221 38 475 141 650 263 326 229 575 569 734 1003 65 178 75 244 41
278 -12 12 -20 12 -59 -3 -24 -9 -62 -31 -83 -48 -61 -49 -191 -109 -288 -134
-16 -4 -32 -8 -35 -9 -3 -1 -30 -5 -60 -10 -273 -41 -450 36 -885 385 -411
331 -637 459 -900 510 -53 10 -317 7 -375 -5 -69 -14 -196 -58 -263 -92 -73
-36 -193 -111 -217 -134 -8 -8 -31 -26 -50 -39 -19 -14 -64 -53 -100 -87 -36
-34 -72 -63 -80 -63 -8 0 -42 26 -75 58 -103 100 -244 200 -370 262 -161 79
-250 101 -440 107 -82 3 -152 3 -155 0z"/>
</g>
</svg>
