<!-- Generated by IcoMoon.io -->
<svg version="1.1" xmlns="http://www.w3.org/2000/svg" width="32" height="32" viewBox="0 0 32 32">
<title>github</title>
<path d="M31.663 13.237c-0.31-2.289-1.274-4.060-2.502-6.303-1.228-2.244-3.455-3.842-5.026-4.957-1.57-1.115-3.752-1.632-5.852-1.839s-4.702-0.22-6.45 0.242c-2.433 0.643-3.993 1.31-5.645 2.817s-2.881 3.036-3.925 4.75c-1.046 1.714-1.839 4.336-1.964 5.613-0.126 1.277-0.023 3.025 0.425 5.015 0.447 1.989 1.457 3.84 2.903 6.072s3.477 3.645 5.83 5.072c2.352 1.426 7.287 2.507 9.157 2.242 1.872-0.264 4.442-0.907 7.081-3s4.108-5.555 4.912-7.718c0.803-2.163 1.366-5.716 1.056-8.005l-0-0.001zM27.945 23.058c-0.080 0-1.090-1.852-1.147-1.99-0.044-0.105 0.413-0.954 0.459-0.965 0.046-0.012 1.113 1.943 1.102 1.989s-0.333 0.966-0.413 0.966v0zM24.067 10.81c-0.046-0.126-0.069-0.241-0.058-0.287s0.321-0.828 0.23-1.506c-0.093-0.678-0.39-1.76-0.368-1.794s1.228 0.931 1.916 2.484 1.274 2.737 1.492 4.841c0.218 2.104 0.115 3.657-0.63 5.072s-1.285 2.22-1.699 2.645c-0.413 0.425-1.273 0.828-1.377 0.828s-0.47-1.863-0.758-2.45c-0.287-0.586-0.803-1.357-0.792-1.483 0 0 0.86-0.77 1.159-1.23s1.274-2.082 1.228-3.876c-0.046-1.795-0.299-3.117-0.345-3.243l0-0.001zM28.795 21.471c-0.093 0.080-1.328-2.051-1.263-2.116 0.104-0.102 0.448-1.206 0.517-1.253s1.205 2.024 1.205 2.162c0 0.138-0.367 1.127-0.459 1.207l0-0zM30.355 15.813c-0.148-0.127-1.101-2.265-1.227-2.312s-0.413 0.448-0.345 0.633 1.331 2.265 1.366 2.461c0.035 0.195-0.092 1.196-0.126 1.047s-0.987-2.001-1.102-2.001c-0.115 0-0.425 0.403-0.413 0.472s1.251 2.369 1.251 2.518c0 0.15-0.172 1.093-0.275 0.92-0.104-0.172-1.309-2.173-1.331-2.23s0.023-2.806-0.115-4.037c-0.137-1.23-0.596-3.668-2.306-5.659s-3.523-3.358-6.14-3.98c-2.617-0.622-4.2-0.585-6.162-0.494-1.963 0.092-4.798 1.219-6.737 4.025s-2.227 3.588-2.663 5.613c-0.435 2.024 0.046 5.026 0.402 6.325 0.356 1.3 1.285 3.186 2.341 4.163s2.375 1.587 3.409 1.966c1.034 0.38 2.594 0.61 2.72 0.564s0.069-1.633 0-1.817-0.126-0.275-0.551-0.253c-0.424 0.023-1.192 0.012-1.697-0.218s-0.918-0.69-1.205-1.207c-0.287-0.517-0.7-1.15-0.918-1.392s-0.678-0.656-0.62-0.736c0.058-0.080 0.918-0.161 1.515 0.023s1.607 0.863 2.043 1.139c0.436 0.276 0.998 0.678 1.194 0.678s0.598-0.92 0.77-1.139c0.171-0.218 0.573-0.955 0.401-1.115-0.172-0.162-1.228-0.207-1.756-0.345-0.528-0.139-1.48-0.656-2.158-1.541s-0.987-2.208-0.975-3.14c0.011-0.931 0.918-2.725 1.101-3.082s0.425-0.69 0.31-0.816c-0.115-0.125-0.608-0.815-0.723-1.299s0.299-1.668 0.379-1.713 0.632 0.104 1.045 0.161c0.413 0.057 1.33 0.31 1.675 0.54s0.47 0.345 0.665 0.345c0.195 0 1.71-0.345 2.227-0.46s2.043-0.299 2.616-0.184 1.435 0.633 1.584 0.54c0.149-0.091 0.494-0.746 1.228-0.93 0.735-0.185 1.985-0.265 2.135-0.138s0.367 1.449 0.253 2.128c-0.115 0.678-0.31 1.070-0.195 1.254s0.665 1.426 0.378 2.53c-0.288 1.104-0.7 2.68-2.066 3.726-1.365 1.047-1.813 1.219-1.974 1.323-0.16 0.104 0 0.426 0.149 0.552s1.159 0.805 1.652 2.323c0.494 1.518 0.574 2.415 0.574 2.726s0.357 0.437 0.631 0.38c0.275-0.058 0.596-0.253 1.045-0.599s1.721-1.253 1.813-1.207c0.093 0.046 0.884 1.736 1.079 1.794s0.333-0.080 0.355-0.195c0.023-0.115-0.619-1.345-0.791-1.68-0.172-0.332-0.299-0.528-0.253-0.631s0.436-0.575 0.517-0.495c0.080 0.081 0.93 1.427 1.078 1.657s0.264 0.276 0.104 0.552c-0.16 0.276-0.723 1.012-0.998 1.254s-0.378 0.54-0.54 0.414c-0.16-0.127-0.963-1.575-1.090-1.599-0.125-0.023-0.47 0.287-0.435 0.39s1.090 1.668 1.090 1.737c0 0.069-0.529 0.747-1.079 1.173-0.552 0.425-0.907 0.69-1.010 0.54-0.104-0.149-1.183-2.656-1.355-2.69s-0.527 0.091-0.47 0.299c0.058 0.207 1.377 2.53 1.365 2.645-0.011 0.115-0.435 0.391-0.562 0.276-0.126-0.115-1.515-2.979-1.687-3.002s-0.47 0.058-0.47 0.334c0 0.276 1.79 2.817 1.71 2.955-0.081 0.139-0.413 0.449-0.54 0.323s-1.768-3.404-1.882-3.427c-0.115-0.023-0.528 0.092-0.528 0.172s1.859 3.53 1.848 3.61c-0.012 0.081-0.724 0.427-0.884 0.345-0.16-0.080-1.79-3.725-1.916-3.805s-0.631 0.265-0.597 0.31c0.035 0.046 2.009 3.473 1.905 3.645s-0.563 0.23-0.642 0.15-1.928-3.611-2.055-3.645c-0.125-0.035-0.515 0.16-0.481 0.31 0.035 0.15 1.962 3.37 1.905 3.393s-0.551 0.046-0.631-0.012-1.745-2.668-1.951-2.725c-0.207-0.058-0.447 0.253-0.447 0.322s1.595 2.369 1.515 2.392c-0.080 0.023-0.608-0.023-0.723-0.092s-1.216-2.024-1.365-2.070c-0.15-0.046-0.505 0.218-0.46 0.334 0.046 0.115 1.125 1.587 0.988 1.587s-0.505 0.012-0.665-0.080c-0.161-0.093-0.918-1.634-1.056-1.68-0.137-0.045-0.413 0.162-0.425 0.219-0.011 0.058 0.586 1.139 0.46 1.15s-0.54-0.012-0.643-0.092c-0.104-0.081-0.804-1.254-0.907-1.288s-0.436 0.15-0.402 0.253c0.034 0.103 0.367 0.61 0.252 0.62-0.115 0.012-2.479-0.643-3.752-1.517s-3.65-3.565-4.384-4.381c-0.735-0.817-1.756-3.255-2.111-4.578s-0.447-3.289-0.435-4.335c0.011-1.047 0.826-3.795 1.285-4.727s2.226-3.462 3.42-4.669 3.121-2.634 5.152-3.243c2.031-0.61 3.741-0.737 4.682-0.725 2.238 0.027 4.785 0.356 6.345 0.885 1.561 0.53 4.476 2.83 5.2 3.658s1.595 2.311 2.111 3.393c0.517 1.080 0.895 2.012 0.793 1.931s-0.746-1.207-0.872-1.196c-0.125 0.012-0.401 0.208-0.355 0.357s1.216 1.966 1.331 2.197c0.115 0.23 0.23 0.495 0.241 0.54 0.012 0.046 0.16 1.622 0.115 1.541s-1.159-2.105-1.308-2.162c-0.149-0.057-0.264 0.172-0.23 0.23 0.035 0.057 1.55 2.645 1.55 2.771-0.002 0.127 0.056 1.185-0.093 1.058h-0.002l0-0.005zM9.538 10.891c0.241 0.23-0.31 0.598-0.7 1.46-0.39 0.863-0.746 2.565-0.54 3.588 0.207 1.023 0.678 2.23 1.779 3.185s2.594 1.012 2.754 1.092c0.16 0.080-0.275 0.655-0.367 0.77s-0.080 0.093-0.299-0.023c-0.217-0.115-1.468-1.185-2.776-1.46-1.309-0.277-2.111 0.115-2.399 0.367s0.035 0.713 0.402 0.989 0.792 0.794 1.331 1.782c0.54 0.989 0.872 1.207 1.745 1.506 0.871 0.3 1.56 0.311 1.698 0.323s0.104 0.414 0.012 0.564c-0.092 0.15-0.447-0.23-0.975-0.38s-1.515-0.241-2.066-0.586-2.33-2.427-2.662-3.335c-0.333-0.909-1.034-2.955-1.045-3.979s-0.092-2.771 0.31-4.082c0.402-1.311 1.285-3.485 2.628-4.98s3.282-2.645 6.151-2.955c2.869-0.311 5.393 0.551 6.966 1.092s1.94 0.875 1.94 0.979c0 0-0.471 0.092-1.71 0.173s-2.043 0.737-2.089 0.817c-0.046 0.080-1.308-0.207-2.628-0.31-1.32-0.104-3.145 0.482-3.213 0.482s-0.252-0.011-0.746-0.207c-0.493-0.195-2.846-0.713-3.121-0.69s-0.883 0.77-1.010 1.886c-0.126 1.116 0.39 1.703 0.632 1.933h-0.001l-0.001-0.001zM18.88 1.139c-2.055-0.287-3.366-0.153-3.455-0.069-0.206 0.195-0.137 0.575 0.115 0.62s1.48-0.15 3.099 0.012c1.618 0.161 2.811 0.77 3.064 0.782s0.401-0.402 0.264-0.552c-0.138-0.15-1.033-0.506-3.087-0.793l0 0.001zM3.662 8.832c-1.63 1.69-1.928 3.91-2.065 4.67s0.355 1.080 0.585 0.977c0.23-0.104-0.011-0.748 0.517-2.438s1.205-2.3 1.423-2.725c0.218-0.427-0.344-0.604-0.46-0.484h0.001zM11.167 15.376c-0.184-0.483-0.046-1.115 0.069-1.656 0.115-0.54-0.402-0.518-0.528-0.391-0.333 0.334-0.459 1.392-0.333 2.047s0.712 1.621 1.022 1.771c0.31 0.15 0.608-0.046 0.54-0.368-0.070-0.322-0.586-0.92-0.77-1.403v0zM9.297 20.678c-0.505 0.334-0.012 0.667 0.195 0.667s0.412-0.080 0.321-0.402c-0.092-0.322-0.396-0.344-0.517-0.265l0.001 0zM10.341 21.587c-0.367 0.207-0.035 0.678 0.207 0.69s0.436-0.172 0.447-0.414c0.012-0.241-0.493-0.366-0.653-0.276h-0.001zM11.776 22.23c-0.517 0.115-0.345 0.622-0.092 0.657s0.47-0.058 0.54-0.322c0.068-0.265-0.123-0.407-0.447-0.335v0zM20.991 8.995c0.115 0.011 0.459 0.069 0.619 0.069s0.15 0.943 0.23 1.23c0.080 0.288 0.505 0.3 0.665 0.139 0.161-0.161-0.057-1.702-0.172-1.851s-1.223 0.060-1.365 0.091c-0.104 0.023-0.093 0.31 0.023 0.322zM24.043 27.211c0.115 0.023 0.413-0.115 0.436-0.287s-0.861-2.265-0.942-2.311c-0.080-0.046-0.608 0.131-0.608 0.23 0 0.195 0.998 2.346 1.113 2.369l0-0z"></path>
</svg>
