<!-- Generated by IcoMoon.io -->
<svg version="1.1" xmlns="http://www.w3.org/2000/svg" width="32" height="32" viewBox="0 0 32 32">
<title>linkedin</title>
<path d="M2.421 9.87c0.972 0.622 2.823 0.645 4.026 0.553s3.078-1.568 3.193-4.15c0.117-2.582-1.735-3.942-1.735-3.942-2.221-1.891-5.276-0.805-5.923-0.415-0.648 0.393-2.384 1.96-1.897 4.105s1.176 3.106 2.337 3.85zM1.56 3.155c0.477-0.669 1.492-1.367 3.453-1.073s2.516 1.141 3.037 1.954c0.521 0.813 0.485 1.539 0.485 1.539s-1.267-2.178-1.457-2.143c-0.191 0.035-0.468 0.397-0.33 0.623s1.58 2.143 1.527 2.282c-0.052 0.138-0.104 0.536-0.173 0.433s-1.215-2.145-1.371-2.11c-0.156 0.035-0.365 0.277-0.26 0.553 0.104 0.277 1.353 1.954 1.301 2.023s-0.277 0.38-0.347 0.277c-0.070-0.104-1.024-1.989-1.215-1.937s-0.346 0.26-0.225 0.57c0.122 0.311 1.145 1.66 1.076 1.747-0.070 0.087-0.26 0.277-0.347 0.225s-1.076-1.643-1.232-1.625c-0.156 0.017-0.468 0.345-0.295 0.553s1.058 1.331 0.955 1.384c-0.105 0.052-0.764 0.172-0.868 0.138s-0.59-1.124-0.746-1.124-0.486 0.242-0.434 0.45c0.052 0.207 0.66 0.725 0.486 0.795s-1.961-0.19-2.759-0.761-1.667-2.801-0.26-4.772zM2.757 7.167c0.139-0.138 0.122-0.19 0.122-0.363s-0.469-0.502-0.555-0.779c-0.087-0.277-0.018-1.090 0.381-1.505s0.503-0.691 0.173-0.83c-0.33-0.138-1.041 0.295-1.198 1.211s0 1.712 0.278 2.058c0.277 0.346 0.655 0.35 0.798 0.208v0zM4.475 13.564c-0.347-0.104-2.221-0.104-2.447-0.069s-0.295 2.594-0.26 2.87c0.034 0.277 0 0.71 0.225 0.727 0 0 0.382 0.052 0.486 0.017s0.174-2.576 0.225-2.767c0.053-0.19 1.91-0.035 1.996-0.121 0.088-0.087 0.122-0.554-0.225-0.658v0zM8.97 11.991c-0.695-0.258-4.287-0.345-5.519-0.362s-2.632-0.049-2.811 0.242c-0.139 0.225-0.070 5.204-0.139 8.472s-0.278 8.248-0.173 8.438c0.104 0.19 2.1 1.608 2.256 1.729s0.555 0.173 1.614 0.155c1.058-0.017 4.512 0.156 4.929 0.052s0.885-0.26 1.024-0.553c0.139-0.294 0.174-1.799 0.243-5.205s0.572-7.936 0.486-9.735c-0.086-1.799-1.215-2.973-1.91-3.232h0.001zM9.004 16.262c-0.104-0.035-1.076-1.643-1.25-1.453s-0.225 0.363-0.017 0.675c0.208 0.31 1.198 1.815 1.215 1.988s0.052 1.020-0.018 1.020-1.25-1.885-1.388-1.815c-0.138 0.070-0.277 0.38-0.243 0.483s1.545 2.075 1.579 2.421c0.035 0.346 0 0.848-0.070 0.761s-1.18-2.282-1.37-2.178c-0.192 0.103-0.365 0.501-0.208 0.76 0.156 0.26 1.492 2.144 1.527 2.248s0 0.933-0.086 0.882c-0.087-0.052-1.232-2.179-1.405-2.162-0.174 0.017-0.348 0.45-0.278 0.692s1.701 2.368 1.666 2.61c-0.035 0.242-0.018 1.159-0.104 1.107s-1.44-2.507-1.562-2.542c-0.121-0.035-0.364 0.432-0.295 0.622 0.070 0.19 1.788 3.009 1.805 3.25 0.018 0.242 0 1.574-0.121 1.505s-1.666-3.113-1.926-3.13c-0.26-0.017-0.295 0.519-0.243 0.675 0.051 0.155 2.030 3.216 2.082 3.389s0 0.346-0.191 0.433c-0.191 0.087-0.277 0.069-0.295 0.017s-1.527-2.698-1.77-2.784-0.417 0.276-0.399 0.363c0.018 0.087 1.84 2.473 1.666 2.628s-0.66 0.173-0.781 0.052c-0.122-0.12-1.631-2.731-1.805-2.731s-0.52 0.45-0.399 0.57c0.121 0.122 1.596 2.214 1.457 2.214s-0.625 0.155-0.746 0.052c-0.121-0.103-1.284-2.058-1.475-2.041s-0.365 0.242-0.347 0.294 1.18 1.625 1.041 1.66c-0.139 0.035-0.625 0.035-0.712-0.017-0.088-0.049-0.833-1.485-0.974-1.52s-0.433 0.26-0.433 0.346c0 0.087 0.92 1.141 0.712 1.193s-1.267-0.052-1.336-0.087c-0.070-0.035-0.434-0.415-0.451-0.744s0.104-15.216 0.26-15.51c0.052-0.098 3.090 0.035 4.668 0.155 1.578 0.121 2.62-0.086 2.845 0.19s0.295 1.66 0.208 1.574c-0.087-0.086-0.694-1.28-0.902-1.227s-0.365 0.467-0.26 0.691c0.104 0.225 1.11 1.66 1.162 1.833s0.070 0.622-0.034 0.587l0.001 0zM31.875 17.87c-0.155-2.162-1.353-3.822-3.037-4.894s-4.529-1.366-6.455-0.969c-1.926 0.398-3.957 2.162-4.026 2.144s-0.017-1.487-0.070-1.85c-0.052-0.363-0.711-0.311-2.36-0.329s-3.875 0.010-3.904 0.139c-0.087 0.38 0.070 7.954 0.087 10.686s-0.121 5.724 0 6.069c0.121 0.346 1.232 1.625 1.649 1.625s4.443-0.069 5.119-0.155c0.677-0.087 0.694-0.726 0.694-1.608s-0.017-7.539 0.277-9.631c0.295-2.092 1.961-2.87 3.315-2.525 1.353 0.346 1.579 1.85 1.857 3.683s-0.242 7.037-0.26 7.608 0.070 2.23 0.383 2.352c0.313 0.122 5.050 0.018 5.744-0.017s0.937-0.121 1.041-0.588c0.105-0.466 0.105-9.578-0.052-11.74h-0.001l-0-0.001zM29.33 16.636c0.058 0.092 1.631 2.605 1.631 2.813s-0.023 0.715-0.081 0.657c-0.057-0.056-1.087-1.982-1.283-1.982s-0.451 0.404-0.37 0.565c0.081 0.162 1.562 2.398 1.573 2.57 0.012 0.174 0.035 1.223-0.023 1.13s-1.354-2.386-1.481-2.386-0.266 0.392-0.266 0.576c0 0.185 1.655 2.72 1.666 2.801 0.012 0.080 0 1.671-0.139 1.648s-0.625-0.83-1.052-1.74c-0.428-0.911-0.486-1.177-0.695-1.13-0.207 0.046-0.139 0.738-0.092 0.91 0.047 0.174 1.642 2.836 1.666 2.975 0.023 0.138 0.047 1.325-0.093 1.221-0.139-0.105-1.55-3.148-1.724-3.17-0.174-0.024-0.393 0.483-0.347 0.575s1.77 2.975 1.817 3.39 0 0.645-0.128 0.645c-0.127 0-0.185-0.080-0.243-0.195-0.058-0.116-1.62-2.767-1.7-2.779-0.081-0.012-0.325 0.484-0.232 0.634s1.504 2.237 1.423 2.26-0.671 0.023-0.74-0.023c-0.070-0.046-1.262-1.856-1.343-1.856-0.080 0-0.392 0.392-0.335 0.495 0.058 0.104 1.007 1.303 0.892 1.337s-0.567 0.046-0.637-0.023-0.764-1.325-0.938-1.313c-0.174 0.012-0.324 0.369-0.289 0.438s0.705 0.956 0.52 1.003c-0.185 0.046-0.763 0.080-0.763 0.012s0.302-2.282 0.325-4.173c0.023-1.89-0.115-3.908-0.325-5.199-0.207-1.291-0.346-2.525-1.26-3.032s-2.488-0.76-3.702-0.010c-1.215 0.75-1.655 1.567-1.84 1.832s-0.207 0.576-0.207 0.576-0.636-1.13-0.878-0.819c-0.243 0.311-0.266 0.508-0.174 0.588 0.093 0.080 0.775 0.657 0.798 0.899s0.081 1.43 0.023 1.43-0.868-1.591-1.053-1.499c-0.185 0.092-0.232 0.692-0.208 0.761s1.041 1.51 1.052 1.695c0.012 0.183 0 1.037-0.046 1.002s-1.145-1.994-1.25-1.948c-0.103 0.046-0.323 0.415-0.3 0.553s1.62 2.513 1.63 2.628c0.012 0.115 0 1.43-0.103 1.43s-1.387-2.605-1.48-2.605c-0.093 0-0.405 0.495-0.37 0.645 0.034 0.15 1.781 2.813 1.828 2.997s0.058 1.579 0 1.579-1.84-3.642-1.955-3.642c-0.115 0-0.44 0.473-0.417 0.518s1.92 3.32 1.92 3.47c0 0.15-0.046 0.184-0.046 0.184s-0.139 0.046-0.174-0.012c-0.035-0.058-1.538-2.502-1.678-2.537s-0.498 0.358-0.416 0.473 1.562 2.018 1.504 2.098c-0.058 0.080-0.729 0.046-0.798 0s-1.156-1.982-1.284-1.96c-0.127 0.023-0.44 0.473-0.417 0.53s1.065 1.465 1.053 1.499c-0.011 0.035-0.59 0.069-0.648 0.012-0.059-0.058-0.96-1.477-1.18-1.5s-0.359 0.462-0.29 0.519c0.070 0.057 0.845 1.072 0.705 1.072-0.138 0-1.156 0.070-1.18-0.185-0.022-0.253 0.197-5.186 0.185-6.823-0.010-1.637-0.172-8.645-0.091-9.026 0.017-0.080 3.251-0.011 3.795-0.023 0.543-0.011 0.89 0.011 0.936 0.080 0.047 0.070-0.023 2.698 0.162 2.79s0.683-0.403 0.834-0.53c0.15-0.127 0.88-0.784 2.534-1.556 1.655-0.773 3.91-0.934 5.055-0.68s2.384 0.611 3.205 1.706c0.822 1.095 1.4 2.029 1.55 2.616s0.15 1.107 0.070 1.084c-0.081-0.023-1.041-2.386-1.308-2.329-0.268 0.058-0.337 0.668-0.28 0.761h-0.002l-0.002-0.001zM16.281 13.489c-0.185-0.115-2.187-0.080-2.325-0.080-0.14 0-0.22 0.242-0.197 0.334 0 0-0.046 0.277 0.046 0.403s1.713 0.069 1.886 0.069c0.174 0 0.197 0.854 0.22 1.027s0.59 0.046 0.671 0.035c0.081-0.012 0.081-0.277 0.081-0.658s-0.197-1.015-0.383-1.131h-0zM22.933 14.469c-0.174 0.104-0.22 0.507 0.081 0.634s1.62 0.415 2.314 0.969c0.694 0.553 0.718 2.144 0.729 2.305s0.475 0.288 0.683 0.058c0.208-0.232 0.115-1.36-0.637-2.664-0.752-1.303-3.040-1.38-3.17-1.302l0 0.001z"></path>
</svg>
