<!-- Generated by IcoMoon.io -->
<svg version="1.1" xmlns="http://www.w3.org/2000/svg" width="16" height="32" viewBox="0 0 16 32">
<title>scroll</title>
<path d="M5.854 22.439v-1.951c-2.029 0-3.707-1.678-3.707-3.707v-10.927c0-2.029 1.678-3.707 3.707-3.707h4.683c2.029 0 3.707 1.678 3.707 3.707v10.927c0 2.029-1.678 3.707-3.707 3.707v1.951c3.122 0 5.659-2.537 5.659-5.659v-10.927c0-3.122-2.537-5.659-5.659-5.659h-4.683c-3.122 0-5.659 2.537-5.659 5.659v10.927c0 3.122 2.537 5.659 5.659 5.659z"></path>
<path d="M7.376 7.181c0.039 0.039 0.078 0.117 0.117 0.156 0.195 0.195 0.429 0.273 0.702 0.273 0.078 0 0.117 0 0.195 0s0.117-0.039 0.195-0.039c0.039-0.039 0.117-0.039 0.156-0.078s0.117-0.078 0.156-0.117c0.039-0.039 0.078-0.078 0.117-0.156 0.039-0.039 0.078-0.117 0.078-0.156 0.039-0.078 0.039-0.117 0.039-0.195s0-0.117 0-0.195c0-0.273-0.117-0.507-0.273-0.702-0.039-0.039-0.078-0.078-0.156-0.117-0.039-0.039-0.117-0.078-0.156-0.078-0.078-0.039-0.117-0.039-0.195-0.039-0.312-0.078-0.663 0.039-0.898 0.273-0.195 0.195-0.273 0.429-0.273 0.702 0 0.078 0 0.117 0 0.195s0.039 0.117 0.039 0.195c0.117-0.039 0.117 0 0.156 0.078z"></path>
<path d="M9.171 15.805c0 0.539-0.437 0.976-0.976 0.976s-0.976-0.437-0.976-0.976c0-0.539 0.437-0.976 0.976-0.976s0.976 0.437 0.976 0.976z"></path>
<path d="M9.171 11.239c0 0.539-0.437 0.976-0.976 0.976s-0.976-0.437-0.976-0.976c0-0.539 0.437-0.976 0.976-0.976s0.976 0.437 0.976 0.976z"></path>
<path d="M7.22 20.488c0.039 0.507 0.468 0.859 0.976 0.859s0.898-0.39 0.976-0.859c0-0.039 0-0.078 0-0.078 0-0.546-0.429-0.976-0.976-0.976s-0.976 0.429-0.976 0.976c0 0 0 0.039 0 0.078z"></path>
<path d="M7.493 25.678c0.039 0.039 0.078 0.078 0.156 0.117 0.039 0.039 0.117 0.078 0.156 0.078 0.078 0.039 0.117 0.039 0.195 0.039s0.117 0 0.195 0c0.273 0 0.507-0.117 0.702-0.273 0.195-0.195 0.273-0.429 0.273-0.702s-0.117-0.507-0.273-0.702c-0.351-0.351-1.015-0.351-1.366 0-0.195 0.195-0.273 0.429-0.273 0.702s0.078 0.546 0.234 0.741z"></path>
<path d="M4.761 27.395c-0.39 0.39-0.39 1.015 0 1.366l2.732 2.732c0.195 0.195 0.429 0.273 0.702 0.273s0.507-0.078 0.702-0.273l2.732-2.732c0.39-0.39 0.39-1.015 0-1.366s-1.015-0.39-1.366 0l-2.068 2.068-2.029-2.029c-0.39-0.39-1.015-0.39-1.405-0.039z"></path>
</svg>
