<!-- Generated by IcoMoon.io -->
<svg version="1.1" xmlns="http://www.w3.org/2000/svg" width="32" height="32" viewBox="0 0 32 32">
<title>twitter</title>
<path d="M31.234 8.684c0 0 0.43-0.737 0.479-1.164s0.048-0.926-0.168-1.117-1.076 0.119-1.77 0.332c-0.694 0.214-2.081 0.428-2.081 0.428s-0.861-2.542-2.248-3.54c-1.387-0.998-3.229-1.021-4.783-0.665-1.555 0.357-3.468 1.355-4.354 2.4s-1.65 3.135-1.913 3.966c-0.264 0.832-0.79 2.28-1.388 2.399s-1.723-0.309-2.679-0.902c-0.957-0.594-3.445-2.613-4.689-3.753s-3.015-3.111-3.59-2.992c-0.574 0.119-1.244 2.185-1.244 3.658s1.315 2.898 1.315 2.898c-0.526 1.924-0.215 3.278 0.288 4.275s1.603 1.663 1.603 1.663c-0.143 0.665-0.072 1.474 0.168 2.186s1.483 1.615 1.483 1.615-0.742 0.595-1.913 0.927c-1.172 0.332-3.397-0.024-3.636 0.024s-0.024 3.017-0.024 3.445c0 0.427 0.311 0.76 0.694 1.045s3.468 1.828 7.798 2.945c4.33 1.116 7.726 0.142 10.31-0.974s5.358-4.537 7.152-7.293c1.794-2.755 2.99-6.722 2.99-6.722s0.67-0.357 1.627-1.069c0.957-0.713 1.315-1.924 1.34-2.66 0.025-0.738-0.765-1.355-0.765-1.355v-0.002zM29.081 10.275c0.287 0 1.507-0.688 1.65-0.57 0.144 0.12-0.358 1.045-1.244 1.569-0.885 0.523-1.555 0.784-1.723 0.736s-0.777-1.235-0.885-1.217-0.395 0.25-0.323 0.41c0.072 0.16 0.771 1.086 0.7 1.23-0.073 0.142-0.108 0.213-0.216 0.124s-0.771-1.498-0.951-1.533c-0.18-0.036-0.43 0.356-0.323 0.534s0.986 1.319 0.969 1.496-0.215 0.998-0.287 0.874c-0.072-0.125-1.166-2.138-1.274-2.12s-0.359 0.481-0.305 0.623 1.328 1.995 1.328 2.155c0 0.161-0.377 0.963-0.503 0.82-0.125-0.143-1.238-2.512-1.345-2.512-0.108 0-0.413 0.393-0.395 0.5s1.435 2.476 1.471 2.655c0.036 0.177-0.305 1.192-0.43 1.122-0.126-0.072-1.275-2.94-1.418-2.957s-0.359 0.41-0.305 0.588 1.4 2.726 1.418 2.94c0.019 0.213-0.215 0.587-0.286 0.534s-1.525-3.634-1.65-3.616c-0.126 0.018-0.341 0.374-0.216 0.784s1.596 3.082 1.615 3.296c0.017 0.214-0.36 0.712-0.413 0.623-0.055-0.089-1.597-3.492-1.74-3.456-0.144 0.035-0.341 0.57-0.216 0.784 0.125 0.215 1.705 2.975 1.705 3.065s-0.413 0.73-0.521 0.677c-0.108-0.053-1.435-3.207-1.579-3.189s-0.413 0.338-0.251 0.695 1.561 2.725 1.507 2.885c-0.054 0.16-0.43 0.695-0.503 0.57s-1.489-3.35-1.65-3.35-0.556 0.358-0.413 0.642c0.142 0.285 1.74 3.1 1.668 3.171s-0.628 0.802-0.718 0.748c-0.089-0.053-1.614-3.313-1.775-3.26-0.162 0.054-0.395 0.303-0.27 0.535 0.126 0.232 1.705 2.993 1.669 3.082s-0.43 0.445-0.538 0.32c-0.108-0.124-1.579-3.046-1.74-3.046-0.162 0-0.503 0.463-0.395 0.642 0.108 0.177 1.83 2.832 1.758 2.957s-0.61 0.588-0.681 0.499c-0.072-0.089-1.4-2.779-1.669-2.761s-0.466 0.427-0.341 0.57c0.125 0.142 1.471 2.405 1.471 2.405s-0.646 0.392-0.753 0.267c-0.107-0.125-1.201-2.602-1.308-2.602s-0.574 0.285-0.377 0.57c0.197 0.285 1.291 2.174 1.183 2.262s-0.448 0.25-0.556 0.125c-0.108-0.125-1.22-2.602-1.328-2.602s-0.538 0.177-0.431 0.356c0.107 0.178 1.256 2.494 1.202 2.53-0.054 0.035-0.771 0.25-0.861 0.16-0.090-0.088-1.059-2.155-1.22-2.155s-0.323 0.25-0.287 0.374c0.036 0.125 1.059 1.907 1.005 1.942-0.055 0.035-0.754 0.142-0.826 0.089s-0.986-2.192-1.13-2.227c-0.143-0.035-0.467 0.25-0.395 0.445 0.072 0.197 0.897 1.782 0.807 1.817s-0.7 0.072-0.79-0.053-0.825-1.853-0.987-1.889c-0.162-0.035-0.448 0.053-0.341 0.32s0.951 1.782 0.825 1.782c-0.126 0-0.807 0-0.879-0.053s-0.807-1.817-0.933-1.853c-0.125-0.035-0.537-0.071-0.466 0.16 0.072 0.233 0.86 1.587 0.717 1.587s-0.879-0.142-1.005-0.267c-0.125-0.125-0.789-1.747-0.932-1.764s-0.449 0.143-0.413 0.357 0.682 1.372 0.52 1.336c-0.16-0.035-0.896-0.16-0.915-0.25-0.017-0.088-0.735-1.585-0.86-1.657s-0.556 0.018-0.449 0.214c0.107 0.197 0.574 1.194 0.503 1.194s-1.758-0.498-3.157-1.211c-1.399-0.712-2.655-1.817-2.494-1.853s1.974 0.107 3.211-0.357c1.238-0.463 2.476-0.944 2.547-1.087s-0.144-0.463-0.197-0.481c-0.053-0.018-1.56-0.481-1.883-1.568s-0.072-2.262-0.269-2.405c-0.197-0.143-1.202-0.57-1.705-2.12s0.055-3.652-0.054-3.795c-0.107-0.142-0.281-0.433-0.455-0.385-0.18 0.049-0.765-1.165-0.789-2.305s0.478-2.66 0.598-2.66c0.12 0 3.325 3.088 5.024 4.514s3.684 2.898 4.856 3.088c1.172 0.19 1.65 0.238 2.2-0.879s1.149-3.848 1.986-5.107c0.837-1.259 2.56-2.684 4.784-3.040s3.899 0.261 4.784 1.496c0.885 1.235 0.933 2.85 1.148 2.992s1.171 0.095 2.32-0.309c1.148-0.404 1.555-0.499 1.626-0.499s-0.263 0.736-1.005 1.354c-0.741 0.617-1.267 1.045-1.267 1.33s0.145 0.498 0.432 0.498l0.001-0.001v0.001zM3.055 8.192c-0.341-0.267-0.198-0.909-0.107-1.372s-0.646-0.357-0.772 0.16c-0.125 0.516 0.018 1.23 0.43 1.585 0.413 0.357 0.8 0.335 0.915 0.25 0.144-0.107-0.125-0.356-0.466-0.623v0.001zM13.12 13.27c-0.269-0.035-0.933 0.32-1.633-0.035-0.7-0.357-1.382-1.194-1.687-1.087-0.214 0.075-0.43 0.357 0.090 0.838s1.489 0.89 2.278 0.89c0.79 0 1.22-0.57 0.951-0.606v0.001zM18.035 6.981c-0.179-0.053-0.933 0.445-1.291 1.070-0.359 0.623-0.897 1.816-0.485 2.049 0.277 0.155 0.413-0.035 0.628-0.713s0.628-1.46 0.861-1.745c0.233-0.286 0.466-0.607 0.287-0.66l-0-0.001z"></path>
</svg>
