<?xml version="1.0" encoding="UTF-8"?>
<svg width="63px" height="64px" viewBox="0 0 63 64" version="1.1" xmlns="http://www.w3.org/2000/svg" xmlns:xlink="http://www.w3.org/1999/xlink">
    <!-- Generator: Sketch 46.2 (44496) - http://www.bohemiancoding.com/sketch -->
    <title>github</title>
    <desc>Created with Sketch.</desc>
    <defs></defs>
    <g id="Page-1" stroke="none" stroke-width="1" fill="none" fill-rule="evenodd">
        <g id="github" fill-rule="nonzero" fill="#000000">
            <path d="M62.827,26.474 C62.207,21.897 60.279,18.354 57.824,13.869 C55.368,9.382 50.914,6.185 47.771,3.954 C44.63,1.725 40.268,0.69 36.068,0.275 C31.868,-0.14 26.664,-0.165 23.168,0.759 C18.303,2.045 15.182,3.379 11.878,6.392 C8.574,9.405 6.116,12.464 4.028,15.892 C1.935,19.32 0.35,24.563 0.1,27.118 C-0.152,29.671 0.054,33.168 0.95,37.148 C1.844,41.126 3.864,44.828 6.756,49.292 C9.648,53.754 13.71,56.582 18.416,59.436 C23.12,62.288 32.99,64.45 36.73,63.92 C40.473,63.393 45.614,62.105 50.893,57.92 C56.173,53.733 59.11,46.81 60.716,42.485 C62.323,38.16 63.448,31.052 62.828,26.475 L62.827,26.474 Z M55.39,46.117 C55.23,46.117 53.21,42.414 53.096,42.137 C53.008,41.927 53.922,40.229 54.014,40.207 C54.106,40.183 56.24,44.093 56.217,44.185 C56.194,44.277 55.551,46.117 55.39,46.117 L55.39,46.117 Z M47.634,21.62 C47.542,21.368 47.496,21.138 47.519,21.046 C47.542,20.954 48.161,19.39 47.979,18.033 C47.793,16.676 47.199,14.513 47.243,14.445 C47.289,14.375 49.699,16.308 51.076,19.413 C52.453,22.518 53.624,24.887 54.06,29.096 C54.496,33.305 54.29,36.41 52.8,39.24 C51.31,42.07 50.23,43.68 49.402,44.53 C48.577,45.38 46.855,46.186 46.649,46.186 C46.443,46.186 45.709,42.46 45.133,41.286 C44.559,40.114 43.526,38.573 43.549,38.32 C43.549,38.32 45.269,36.78 45.867,35.86 C46.464,34.94 48.415,31.696 48.323,28.108 C48.231,24.518 47.726,21.874 47.633,21.621 L47.634,21.62 Z M57.09,42.943 C56.905,43.103 54.434,38.841 54.564,38.711 C54.771,38.506 55.459,36.298 55.597,36.206 C55.735,36.114 58.007,40.254 58.007,40.53 C58.007,40.806 57.273,42.783 57.089,42.944 L57.09,42.943 Z M60.21,31.626 C59.913,31.373 58.008,27.096 57.755,27.003 C57.503,26.911 56.929,27.9 57.065,28.268 C57.201,28.636 59.728,32.798 59.797,33.19 C59.867,33.58 59.613,35.582 59.545,35.283 C59.475,34.983 57.571,31.281 57.342,31.281 C57.112,31.281 56.492,32.088 56.516,32.226 C56.539,32.364 59.018,36.964 59.018,37.263 C59.018,37.563 58.674,39.449 58.468,39.103 C58.26,38.759 55.85,34.757 55.805,34.643 C55.759,34.527 55.851,29.03 55.575,26.569 C55.301,24.109 54.383,19.232 50.963,15.252 C47.543,11.272 43.917,8.536 38.683,7.292 C33.449,6.048 30.283,6.122 26.359,6.305 C22.432,6.489 16.763,8.743 12.884,14.355 C9.004,19.967 8.431,21.531 7.559,25.58 C6.689,29.628 7.652,35.632 8.363,38.23 C9.075,40.83 10.933,44.602 13.045,46.557 C15.157,48.512 17.795,49.731 19.862,50.49 C21.929,51.249 25.049,51.71 25.302,51.617 C25.554,51.525 25.44,48.351 25.302,47.983 C25.164,47.615 25.05,47.433 24.2,47.478 C23.353,47.524 21.815,47.501 20.805,47.041 C19.795,46.581 18.969,45.661 18.395,44.626 C17.821,43.591 16.995,42.326 16.559,41.843 C16.122,41.359 15.204,40.531 15.319,40.37 C15.434,40.21 17.155,40.048 18.349,40.416 C19.543,40.784 21.562,42.141 22.434,42.693 C23.306,43.245 24.431,44.05 24.821,44.05 C25.211,44.05 26.016,42.21 26.361,41.773 C26.704,41.336 27.508,39.863 27.163,39.543 C26.819,39.22 24.707,39.128 23.651,38.853 C22.595,38.576 20.691,37.541 19.336,35.77 C17.982,34 17.362,31.354 17.386,29.49 C17.408,27.628 19.221,24.04 19.588,23.327 C19.954,22.614 20.438,21.947 20.208,21.694 C19.978,21.444 18.991,20.064 18.761,19.097 C18.533,18.131 19.359,15.762 19.519,15.67 C19.679,15.578 20.782,15.877 21.609,15.992 C22.435,16.107 24.269,16.612 24.959,17.072 C25.649,17.532 25.899,17.762 26.289,17.762 C26.679,17.762 29.709,17.072 30.744,16.842 C31.777,16.612 34.829,16.245 35.977,16.475 C37.125,16.705 38.847,17.741 39.144,17.555 C39.442,17.373 40.131,16.062 41.6,15.695 C43.07,15.325 45.57,15.165 45.87,15.418 C46.168,15.671 46.604,18.316 46.375,19.673 C46.145,21.03 45.755,21.813 45.985,22.18 C46.215,22.548 47.315,25.032 46.742,27.24 C46.167,29.448 45.342,32.6 42.61,34.692 C39.88,36.785 38.984,37.13 38.662,37.337 C38.342,37.545 38.662,38.189 38.96,38.442 C39.258,38.695 41.278,40.052 42.265,43.088 C43.252,46.125 43.413,47.918 43.413,48.54 C43.413,49.162 44.126,49.414 44.676,49.3 C45.226,49.184 45.869,48.793 46.766,48.103 C47.663,47.413 50.208,45.596 50.391,45.688 C50.576,45.78 52.159,49.161 52.549,49.276 C52.939,49.392 53.215,49.116 53.259,48.886 C53.306,48.656 52.021,46.196 51.676,45.526 C51.332,44.861 51.079,44.47 51.171,44.263 C51.263,44.056 52.043,43.113 52.204,43.273 C52.364,43.435 54.064,46.126 54.361,46.586 C54.659,47.046 54.889,47.138 54.568,47.69 C54.248,48.243 53.122,49.715 52.571,50.198 C52.021,50.681 51.814,51.278 51.491,51.026 C51.171,50.773 49.564,47.876 49.311,47.829 C49.061,47.782 48.371,48.403 48.441,48.609 C48.511,48.815 50.621,51.945 50.621,52.083 C50.621,52.221 49.564,53.578 48.463,54.429 C47.36,55.279 46.649,55.809 46.443,55.509 C46.235,55.211 44.078,50.197 43.733,50.129 C43.388,50.061 42.678,50.312 42.793,50.726 C42.908,51.14 45.547,55.786 45.523,56.016 C45.501,56.246 44.653,56.798 44.399,56.568 C44.147,56.338 41.369,50.61 41.025,50.564 C40.681,50.518 40.085,50.679 40.085,51.231 C40.085,51.783 43.665,56.866 43.505,57.141 C43.343,57.418 42.678,58.039 42.425,57.786 C42.173,57.533 38.89,50.978 38.661,50.932 C38.431,50.886 37.605,51.116 37.605,51.277 C37.605,51.437 41.323,58.337 41.3,58.497 C41.276,58.66 39.853,59.35 39.532,59.187 C39.212,59.027 35.952,51.737 35.699,51.577 C35.446,51.417 34.436,52.107 34.505,52.197 C34.575,52.289 38.522,59.143 38.315,59.487 C38.108,59.833 37.19,59.947 37.03,59.787 C36.87,59.627 33.174,52.565 32.92,52.497 C32.67,52.427 31.89,52.817 31.958,53.117 C32.028,53.417 35.883,59.857 35.768,59.902 C35.653,59.948 34.666,59.994 34.506,59.879 C34.346,59.764 31.016,54.544 30.604,54.429 C30.191,54.314 29.709,54.935 29.709,55.073 C29.709,55.211 32.899,59.811 32.739,59.857 C32.579,59.903 31.522,59.811 31.292,59.673 C31.062,59.535 28.859,55.625 28.562,55.533 C28.262,55.441 27.552,55.97 27.642,56.2 C27.735,56.43 29.892,59.375 29.617,59.375 C29.342,59.375 28.607,59.398 28.287,59.215 C27.965,59.03 26.45,55.948 26.174,55.855 C25.899,55.765 25.348,56.178 25.324,56.293 C25.302,56.408 26.496,58.57 26.244,58.593 C25.991,58.616 25.164,58.57 24.958,58.409 C24.75,58.247 23.35,55.901 23.144,55.832 C22.938,55.763 22.272,56.132 22.341,56.338 C22.41,56.544 23.075,57.558 22.846,57.578 C22.616,57.603 17.888,56.292 15.341,54.544 C12.793,52.796 8.041,47.414 6.573,45.781 C5.103,44.148 3.061,39.271 2.35,36.626 C1.64,33.981 1.456,30.048 1.48,27.956 C1.502,25.862 3.132,20.366 4.05,18.501 C4.968,16.638 8.503,11.578 10.89,9.163 C13.277,6.748 17.133,3.896 21.195,2.677 C25.257,1.458 28.677,1.204 30.559,1.227 C35.035,1.282 40.129,1.94 43.249,2.997 C46.372,4.057 52.202,8.657 53.649,10.312 C55.096,11.967 56.839,14.935 57.871,17.097 C58.905,19.257 59.661,21.121 59.456,20.96 C59.251,20.799 57.964,18.545 57.712,18.568 C57.462,18.593 56.91,18.984 57.002,19.283 C57.094,19.583 59.435,23.216 59.664,23.676 C59.894,24.136 60.124,24.666 60.146,24.756 C60.169,24.849 60.466,28 60.376,27.839 C60.284,27.679 58.058,23.629 57.759,23.516 C57.461,23.401 57.231,23.861 57.299,23.976 C57.369,24.091 60.399,29.266 60.399,29.519 C60.396,29.772 60.511,31.889 60.213,31.635 L60.209,31.635 L60.21,31.626 Z M18.576,21.782 C19.058,22.242 17.956,22.978 17.176,24.702 C16.396,26.428 15.684,29.832 16.096,31.879 C16.51,33.924 17.451,36.339 19.654,38.249 C21.857,40.159 24.841,40.272 25.162,40.433 C25.482,40.593 24.612,41.743 24.428,41.973 C24.244,42.203 24.268,42.158 23.831,41.928 C23.397,41.698 20.895,39.558 18.279,39.008 C15.662,38.454 14.056,39.238 13.482,39.742 C12.909,40.248 13.552,41.168 14.286,41.72 C15.02,42.272 15.87,43.307 16.948,45.285 C18.028,47.263 18.692,47.7 20.438,48.298 C22.181,48.898 23.558,48.92 23.834,48.943 C24.11,48.966 24.042,49.771 23.858,50.07 C23.674,50.37 22.963,49.61 21.908,49.31 C20.851,49.012 18.878,48.828 17.776,48.138 C16.674,47.448 13.116,43.285 12.451,41.468 C11.784,39.651 10.384,35.558 10.361,33.51 C10.338,31.463 10.177,27.967 10.981,25.345 C11.784,22.723 13.551,18.375 16.237,15.385 C18.923,12.395 22.801,10.095 28.539,9.475 C34.277,8.853 39.326,10.578 42.471,11.659 C45.615,12.742 46.351,13.409 46.351,13.616 C46.351,13.616 45.409,13.8 42.931,13.961 C40.451,14.123 38.845,15.434 38.753,15.595 C38.661,15.755 36.136,15.181 33.497,14.975 C30.857,14.767 27.207,15.94 27.071,15.94 C26.935,15.94 26.566,15.917 25.579,15.526 C24.592,15.136 19.887,14.1 19.336,14.146 C18.786,14.192 17.569,15.686 17.316,17.918 C17.064,20.15 18.096,21.323 18.579,21.783 L18.577,21.783 L18.576,21.782 Z M37.26,2.277 C33.15,1.702 30.528,1.971 30.35,2.139 C29.938,2.529 30.076,3.289 30.58,3.379 C31.085,3.471 33.54,3.079 36.777,3.402 C40.013,3.724 42.4,4.942 42.905,4.966 C43.41,4.989 43.708,4.161 43.433,3.862 C43.157,3.562 41.367,2.85 37.259,2.275 L37.26,2.277 Z M6.824,17.664 C3.564,21.044 2.968,25.484 2.694,27.004 C2.42,28.524 3.404,29.164 3.864,28.958 C4.324,28.751 3.841,27.463 4.897,24.082 C5.953,20.701 7.307,19.482 7.743,18.632 C8.178,17.779 7.056,17.424 6.823,17.664 L6.824,17.664 Z M21.834,30.752 C21.467,29.786 21.742,28.522 21.972,27.44 C22.202,26.36 21.168,26.405 20.916,26.658 C20.25,27.325 19.998,29.441 20.25,30.752 C20.503,32.062 21.674,33.995 22.294,34.294 C22.914,34.594 23.51,34.202 23.374,33.558 C23.234,32.914 22.202,31.718 21.834,30.752 L21.834,30.752 Z M18.094,41.356 C17.084,42.023 18.07,42.69 18.484,42.69 C18.898,42.69 19.309,42.53 19.126,41.885 C18.942,41.241 18.333,41.197 18.093,41.355 L18.094,41.356 Z M20.182,43.173 C19.448,43.587 20.112,44.53 20.595,44.553 C21.077,44.576 21.467,44.208 21.49,43.725 C21.514,43.242 20.503,42.992 20.183,43.173 L20.182,43.173 Z M23.052,44.461 C22.018,44.691 22.362,45.705 22.867,45.774 C23.372,45.843 23.807,45.659 23.947,45.13 C24.083,44.6 23.701,44.317 23.052,44.46 L23.052,44.461 Z M41.482,17.989 C41.712,18.012 42.399,18.127 42.72,18.127 C43.042,18.127 43.02,20.013 43.18,20.587 C43.34,21.163 44.19,21.187 44.51,20.864 C44.832,20.542 44.396,17.46 44.167,17.161 C43.937,16.861 41.721,17.281 41.437,17.344 C41.229,17.389 41.252,17.964 41.482,17.989 Z M47.586,54.422 C47.816,54.469 48.412,54.192 48.458,53.848 C48.503,53.503 46.736,49.318 46.575,49.225 C46.415,49.133 45.359,49.487 45.359,49.685 C45.359,50.075 47.356,54.377 47.585,54.423 L47.586,54.422 Z" id="Shape"></path>
        </g>
    </g>
</svg>