<?xml version="1.0" encoding="UTF-8"?>
<svg width="82px" height="82px" viewBox="0 0 82 82" version="1.1" xmlns="http://www.w3.org/2000/svg" xmlns:xlink="http://www.w3.org/1999/xlink">
    <!-- Generator: Sketch 46.2 (44496) - http://www.bohemiancoding.com/sketch -->
    <title>light</title>
    <desc>Created with Sketch.</desc>
    <defs></defs>
    <g id="Page-1" stroke="none" stroke-width="1" fill="none" fill-rule="evenodd">
        <g id="light" fill-rule="nonzero" fill="#000000">
            <path d="M58.2,56.1 C61.2,48.8 68.2,44 76.1,44 L81.9,44 L77.7,39.9 C75.5,37.7 72.9,36 70,34.9 C64,32.5 57.5,32.6 51.6,35.1 C45.7,37.6 41.1,42.3 38.7,48.3 C36.3,54.3 36.4,60.8 38.9,66.7 C41.4,72.6 46.1,77.2 52.1,79.6 C55,80.8 58,81.3 61.1,81.3 C61.1,81.3 61.2,81.3 61.2,81.3 L67,81.3 L62.8,77.2 C57.1,71.7 55.3,63.4 58.2,56.1 L58.2,56.1 Z M55.5,75.7 C54.9,75.5 54.3,75.3 53.8,75.1 C49,73.2 45.3,69.5 43.2,64.8 C41.1,60.1 41.1,54.8 43,50 C44.9,45.2 48.6,41.5 53.3,39.4 C55.7,38.4 58.3,37.8 60.9,37.8 C63.3,37.8 65.8,38.3 68.1,39.2 C68.7,39.4 69.2,39.7 69.8,40 C62.6,41.9 56.6,47.1 53.8,54.3 C51,61.5 51.7,69.4 55.5,75.7 Z" id="Shape"></path>
            <rect id="Rectangle-path" transform="translate(46.672690, 6.251010) rotate(-74.715734) translate(-46.672690, -6.251010) " x="41.6228462" y="3.90108271" width="10.0996875" height="4.69985458"></rect>
            <rect id="Rectangle-path" transform="translate(5.550625, 29.703075) rotate(-74.710207) translate(-5.550625, -29.703075) " x="3.20063575" y="24.6530981" width="4.6999785" height="10.0999538"></rect>
            <rect id="Rectangle-path" transform="translate(28.440000, 6.359700) rotate(-16.260205) translate(-28.440000, -6.359700) " x="26.09" y="1.3097" width="4.7" height="10.1"></rect>
            <rect id="Rectangle-path" transform="translate(5.748400, 47.846600) rotate(-16.260205) translate(-5.748400, -47.846600) " x="0.6984" y="45.4966" width="10.1" height="4.7"></rect>
            <rect id="Rectangle-path" transform="translate(13.937780, 15.071710) rotate(-45.550982) translate(-13.937780, -15.071710) " x="11.5876939" y="10.0215249" width="4.70017225" height="10.1003702"></rect>
            <rect id="Rectangle-path" transform="translate(38.397965, 39.052005) rotate(-44.983794) translate(-38.397965, -39.052005) " x="-0.801660638" y="36.7020274" width="78.3992513" height="4.69995511"></rect>
            <path d="M17.1,52.1 L20.5,48.7 C17.8,44.2 16.9,38.7 18.4,33.2 C21.3,22.5 32.4,16.2 43.1,19.1 C44.9,19.6 46.5,20.3 48,21.2 L51.4,17.8 C49.3,16.4 46.9,15.3 44.3,14.6 C31.1,11 17.4,18.8 13.8,32 C11.9,39.1 13.3,46.4 17.1,52.1 Z" id="Shape"></path>
        </g>
    </g>
</svg>