<?xml version="1.0" encoding="UTF-8"?>
<svg width="64px" height="59px" viewBox="0 0 64 59" version="1.1" xmlns="http://www.w3.org/2000/svg" xmlns:xlink="http://www.w3.org/1999/xlink">
    <!-- Generator: Sketch 46.2 (44496) - http://www.bohemiancoding.com/sketch -->
    <title>linked-in</title>
    <desc>Created with Sketch.</desc>
    <defs></defs>
    <g id="Page-1" stroke="none" stroke-width="1" fill="none" fill-rule="evenodd">
        <g id="linked-in" fill-rule="nonzero" fill="#000000">
            <path d="M4.843,17.24 C6.787,18.484 10.489,18.53 12.895,18.346 C15.301,18.162 19.05,15.211 19.281,10.046 C19.514,4.882 15.811,2.161 15.811,2.161 C11.37,-1.62 5.26,0.55 3.965,1.33 C2.668,2.116 -0.802,5.25 0.17,9.54 C1.142,13.83 2.522,15.752 4.843,17.24 Z M3.12,3.81 C4.073,2.472 6.104,1.077 10.025,1.665 C13.946,2.253 15.057,3.947 16.099,5.573 C17.141,7.199 17.069,8.651 17.069,8.651 C17.069,8.651 14.535,4.296 14.154,4.365 C13.772,4.435 13.217,5.16 13.494,5.61 C13.771,6.06 16.654,9.897 16.549,10.174 C16.446,10.451 16.342,11.246 16.203,11.039 C16.064,10.832 13.773,6.749 13.461,6.819 C13.149,6.889 12.731,7.372 12.941,7.926 C13.148,8.479 15.647,11.834 15.543,11.972 C15.439,12.11 14.988,12.732 14.849,12.525 C14.709,12.318 12.801,8.548 12.419,8.652 C12.039,8.756 11.726,9.172 11.969,9.792 C12.212,10.415 14.259,13.112 14.121,13.286 C13.981,13.459 13.601,13.839 13.427,13.736 C13.253,13.632 11.275,10.451 10.963,10.486 C10.651,10.52 10.026,11.176 10.373,11.592 C10.72,12.007 12.49,14.255 12.283,14.359 C12.073,14.462 10.755,14.704 10.547,14.635 C10.339,14.565 9.367,12.387 9.055,12.387 C8.743,12.387 8.083,12.871 8.187,13.287 C8.291,13.701 9.507,14.737 9.159,14.877 C8.812,15.015 5.237,14.497 3.641,13.355 C2.045,12.213 0.308,7.752 3.12,3.81 Z M5.514,11.833 C5.792,11.556 5.757,11.453 5.757,11.107 C5.757,10.761 4.82,10.103 4.647,9.55 C4.473,8.997 4.612,7.37 5.41,6.54 C6.208,5.71 6.416,5.158 5.757,4.88 C5.097,4.605 3.675,5.47 3.362,7.302 C3.049,9.134 3.362,10.726 3.917,11.417 C4.472,12.108 5.227,12.117 5.514,11.833 L5.514,11.833 Z M8.95,24.628 C8.256,24.42 4.508,24.42 4.056,24.49 C3.604,24.56 3.466,29.677 3.536,30.23 C3.604,30.784 3.536,31.65 3.986,31.683 C3.986,31.683 4.75,31.787 4.958,31.718 C5.166,31.648 5.305,26.565 5.408,26.185 C5.513,25.805 9.228,26.115 9.4,25.943 C9.575,25.769 9.644,24.835 8.95,24.628 L8.95,24.628 Z M17.94,21.481 C16.55,20.964 9.367,20.791 6.902,20.757 C4.437,20.723 1.638,20.66 1.28,21.241 C1.002,21.691 1.14,31.649 1.002,38.185 C0.864,44.721 0.447,54.68 0.655,55.06 C0.863,55.44 4.855,58.276 5.167,58.518 C5.479,58.76 6.277,58.864 8.395,58.828 C10.512,58.794 17.419,59.14 18.252,58.933 C19.085,58.726 20.022,58.413 20.3,57.826 C20.578,57.238 20.647,54.229 20.786,47.416 C20.925,40.603 21.931,31.544 21.758,27.946 C21.585,24.348 19.328,22 17.938,21.481 L17.94,21.481 Z M18.008,30.025 C17.8,29.955 15.856,26.74 15.508,27.12 C15.162,27.5 15.058,27.845 15.474,28.47 C15.89,29.09 17.869,32.1 17.904,32.445 C17.938,32.791 18.007,34.485 17.868,34.485 C17.729,34.485 15.368,30.715 15.092,30.855 C14.816,30.995 14.537,31.615 14.606,31.822 C14.675,32.029 17.696,35.972 17.764,36.664 C17.834,37.356 17.764,38.359 17.624,38.186 C17.486,38.013 15.264,33.621 14.884,33.829 C14.501,34.035 14.154,34.831 14.467,35.349 C14.779,35.869 17.452,39.637 17.521,39.845 C17.591,40.052 17.521,41.712 17.349,41.609 C17.175,41.504 14.885,37.251 14.539,37.285 C14.191,37.32 13.844,38.185 13.983,38.668 C14.123,39.15 17.385,43.404 17.316,43.888 C17.246,44.372 17.281,46.205 17.108,46.101 C16.934,45.997 14.228,41.087 13.984,41.017 C13.742,40.947 13.256,41.881 13.394,42.261 C13.534,42.641 16.97,48.278 17.004,48.761 C17.039,49.246 17.004,51.909 16.761,51.771 C16.518,51.633 13.429,45.546 12.909,45.511 C12.389,45.477 12.319,46.549 12.423,46.861 C12.526,47.171 16.483,53.293 16.587,53.639 C16.691,53.985 16.587,54.331 16.205,54.504 C15.823,54.677 15.65,54.642 15.615,54.539 C15.58,54.435 12.561,49.144 12.075,48.971 C11.589,48.798 11.242,49.524 11.277,49.697 C11.312,49.871 14.957,54.643 14.609,54.954 C14.261,55.265 13.289,55.3 13.047,55.058 C12.804,54.818 9.785,49.596 9.437,49.596 C9.091,49.596 8.397,50.496 8.64,50.736 C8.882,50.979 11.832,55.164 11.554,55.164 C11.276,55.164 10.304,55.474 10.062,55.268 C9.82,55.062 7.494,51.152 7.112,51.186 C6.73,51.221 6.382,51.67 6.418,51.774 C6.454,51.878 8.778,55.024 8.5,55.094 C8.222,55.164 7.25,55.164 7.077,55.059 C6.9,54.96 5.41,52.09 5.13,52.02 C4.85,51.95 4.263,52.54 4.263,52.712 C4.263,52.885 6.103,54.994 5.686,55.098 C5.27,55.202 3.152,54.994 3.014,54.925 C2.874,54.855 2.146,54.095 2.112,53.438 C2.077,52.781 2.32,23.006 2.632,22.418 C2.737,22.222 8.812,22.488 11.969,22.728 C15.125,22.971 17.209,22.556 17.659,23.108 C18.109,23.662 18.249,26.428 18.075,26.256 C17.901,26.083 16.687,23.696 16.27,23.801 C15.855,23.905 15.54,24.735 15.75,25.184 C15.958,25.634 17.97,28.504 18.075,28.85 C18.181,29.194 18.215,30.093 18.007,30.024 L18.008,30.025 Z M63.75,33.24 C63.44,28.916 61.044,25.596 57.677,23.452 C54.31,21.308 48.619,20.72 44.767,21.515 C40.915,22.31 36.853,25.838 36.714,25.803 C36.575,25.768 36.679,22.829 36.574,22.103 C36.469,21.377 35.152,21.481 31.854,21.446 C28.556,21.411 24.104,21.466 24.046,21.723 C23.872,22.483 24.186,37.631 24.22,43.095 C24.254,48.559 23.977,54.542 24.22,55.233 C24.463,55.925 26.684,58.483 27.517,58.483 C28.35,58.483 36.402,58.346 37.755,58.173 C39.109,58 39.143,56.721 39.143,54.957 C39.143,53.193 39.108,39.879 39.698,35.695 C40.288,31.511 43.62,29.955 46.328,30.645 C49.034,31.338 49.485,34.345 50.041,38.012 C50.598,41.678 49.557,52.087 49.521,53.228 C49.485,54.369 49.661,57.688 50.286,57.931 C50.911,58.175 60.386,57.968 61.774,57.898 C63.162,57.828 63.648,57.656 63.856,56.722 C64.066,55.789 64.066,37.565 63.753,33.242 L63.751,33.242 L63.75,33.24 Z M58.66,30.772 C58.777,30.956 61.923,35.982 61.923,36.397 C61.923,36.812 61.877,37.827 61.761,37.711 C61.647,37.598 59.588,33.748 59.195,33.748 C58.802,33.748 58.293,34.555 58.455,34.878 C58.617,35.201 61.579,39.673 61.602,40.018 C61.626,40.365 61.672,42.463 61.557,42.278 C61.441,42.094 58.85,37.506 58.595,37.506 C58.34,37.506 58.063,38.29 58.063,38.659 C58.063,39.029 61.373,44.099 61.396,44.261 C61.419,44.421 61.396,47.603 61.118,47.557 C60.84,47.511 59.868,45.897 59.013,44.077 C58.156,42.255 58.04,41.724 57.623,41.817 C57.208,41.909 57.346,43.292 57.439,43.637 C57.532,43.984 60.724,49.309 60.771,49.587 C60.817,49.863 60.864,52.237 60.586,52.03 C60.308,51.82 57.486,45.734 57.139,45.69 C56.792,45.642 56.352,46.656 56.445,46.84 C56.538,47.025 59.985,52.79 60.078,53.62 C60.171,54.45 60.078,54.91 59.823,54.91 C59.569,54.91 59.453,54.75 59.337,54.52 C59.221,54.287 56.097,48.985 55.937,48.962 C55.774,48.939 55.287,49.93 55.473,50.23 C55.658,50.53 58.481,54.704 58.319,54.75 C58.157,54.796 56.977,54.796 56.839,54.704 C56.699,54.612 54.316,50.992 54.154,50.992 C53.994,50.992 53.369,51.776 53.484,51.982 C53.601,52.19 55.498,54.588 55.267,54.657 C55.037,54.727 54.133,54.749 53.994,54.611 C53.855,54.473 52.466,51.961 52.119,51.985 C51.772,52.008 51.471,52.723 51.541,52.861 C51.611,52.999 52.951,54.774 52.581,54.866 C52.211,54.958 51.055,55.026 51.055,54.889 C51.055,54.752 51.659,50.324 51.705,46.543 C51.751,42.763 51.475,38.727 51.055,36.145 C50.641,33.563 50.363,31.095 48.535,30.082 C46.705,29.07 43.56,28.562 41.131,30.062 C38.701,31.562 37.821,33.196 37.451,33.727 C37.081,34.257 37.036,34.88 37.036,34.88 C37.036,34.88 35.764,32.62 35.279,33.243 C34.793,33.866 34.747,34.258 34.932,34.42 C35.117,34.58 36.482,35.734 36.528,36.218 C36.575,36.702 36.691,39.078 36.575,39.078 C36.459,39.078 34.839,35.895 34.469,36.08 C34.099,36.264 34.006,37.463 34.053,37.602 C34.099,37.739 36.135,40.622 36.158,40.992 C36.182,41.359 36.158,43.065 36.066,42.996 C35.974,42.926 33.776,39.008 33.566,39.1 C33.36,39.192 32.92,39.93 32.966,40.207 C33.012,40.484 36.206,45.233 36.226,45.463 C36.251,45.693 36.226,48.323 36.02,48.323 C35.814,48.323 33.245,43.113 33.06,43.113 C32.874,43.113 32.25,44.103 32.32,44.403 C32.388,44.703 35.882,50.029 35.975,50.398 C36.067,50.768 36.09,53.556 35.975,53.556 C35.86,53.556 32.295,46.271 32.065,46.271 C31.835,46.271 31.185,47.216 31.231,47.308 C31.277,47.4 35.071,53.948 35.071,54.248 C35.071,54.548 34.979,54.616 34.979,54.616 C34.979,54.616 34.701,54.708 34.632,54.593 C34.562,54.477 31.555,49.589 31.277,49.52 C30.999,49.45 30.282,50.235 30.444,50.465 C30.606,50.695 33.567,54.5 33.451,54.661 C33.335,54.821 31.993,54.753 31.855,54.661 C31.715,54.569 29.542,50.696 29.288,50.741 C29.033,50.788 28.408,51.687 28.454,51.801 C28.499,51.917 30.584,54.731 30.559,54.799 C30.536,54.869 29.379,54.937 29.263,54.822 C29.146,54.705 27.343,51.869 26.903,51.822 C26.463,51.775 26.185,52.745 26.323,52.86 C26.463,52.974 28.013,55.003 27.733,55.003 C27.457,55.003 25.421,55.143 25.373,54.633 C25.329,54.128 25.768,44.26 25.743,40.987 C25.723,37.713 25.398,23.697 25.56,22.935 C25.594,22.775 32.062,22.912 33.15,22.889 C34.236,22.866 34.93,22.912 35.023,23.049 C35.116,23.189 34.977,28.445 35.347,28.629 C35.717,28.813 36.713,27.822 37.014,27.569 C37.314,27.315 38.774,26.001 42.082,24.457 C45.392,22.912 49.902,22.59 52.192,23.097 C54.482,23.604 56.959,24.319 58.602,26.509 C60.245,28.699 61.402,30.567 61.702,31.742 C62.002,32.918 62.002,33.955 61.842,33.909 C61.679,33.863 59.759,29.137 59.227,29.252 C58.691,29.368 58.552,30.589 58.667,30.774 L58.664,30.774 L58.66,30.772 Z M32.562,24.478 C32.192,24.248 28.189,24.318 27.912,24.318 C27.632,24.318 27.472,24.801 27.518,24.986 C27.518,24.986 27.425,25.539 27.611,25.793 C27.797,26.047 31.037,25.931 31.384,25.931 C31.731,25.931 31.777,27.639 31.824,27.985 C31.87,28.331 33.004,28.077 33.166,28.055 C33.328,28.031 33.328,27.501 33.328,26.74 C33.328,25.979 32.934,24.71 32.563,24.478 L32.562,24.478 Z M45.866,26.438 C45.519,26.645 45.426,27.452 46.028,27.706 C46.63,27.96 49.268,28.536 50.655,29.643 C52.043,30.75 52.09,33.931 52.113,34.253 C52.136,34.577 53.063,34.83 53.478,34.369 C53.894,33.906 53.708,31.649 52.205,29.041 C50.701,26.436 46.125,26.281 45.865,26.437 L45.866,26.438 Z" id="Shape"></path>
        </g>
    </g>
</svg>