<?xml version="1.0" encoding="UTF-8"?>
<svg width="42px" height="82px" viewBox="0 0 42 82" version="1.1" xmlns="http://www.w3.org/2000/svg" xmlns:xlink="http://www.w3.org/1999/xlink">
    <!-- Generator: Sketch 46.2 (44496) - http://www.bohemiancoding.com/sketch -->
    <title>scroll</title>
    <desc>Created with Sketch.</desc>
    <defs></defs>
    <g id="Page-1" stroke="none" stroke-width="1" fill="none" fill-rule="evenodd">
        <g id="scroll" fill-rule="nonzero" fill="#000000">
            <path d="M15,57.5 L15,52.5 C9.8,52.5 5.5,48.2 5.5,43 L5.5,15 C5.5,9.8 9.8,5.5 15,5.5 L27,5.5 C32.2,5.5 36.5,9.8 36.5,15 L36.5,43 C36.5,48.2 32.2,52.5 27,52.5 L27,57.5 C35,57.5 41.5,51 41.5,43 L41.5,15 C41.5,7 35,0.5 27,0.5 L15,0.5 C7,0.5 0.5,7 0.5,15 L0.5,43 C0.5,51 7,57.5 15,57.5 Z" id="Shape"></path>
            <path d="M18.9,18.4 C19,18.5 19.1,18.7 19.2,18.8 C19.7,19.3 20.3,19.5 21,19.5 C21.2,19.5 21.3,19.5 21.5,19.5 C21.7,19.5 21.8,19.4 22,19.4 C22.1,19.3 22.3,19.3 22.4,19.2 C22.5,19.1 22.7,19 22.8,18.9 C22.9,18.8 23,18.7 23.1,18.5 C23.2,18.4 23.3,18.2 23.3,18.1 C23.4,17.9 23.4,17.8 23.4,17.6 C23.4,17.4 23.4,17.3 23.4,17.1 C23.4,16.4 23.1,15.8 22.7,15.3 C22.6,15.2 22.5,15.1 22.3,15 C22.2,14.9 22,14.8 21.9,14.8 C21.7,14.7 21.6,14.7 21.4,14.7 C20.6,14.5 19.7,14.8 19.1,15.4 C18.6,15.9 18.4,16.5 18.4,17.2 C18.4,17.4 18.4,17.5 18.4,17.7 C18.4,17.9 18.5,18 18.5,18.2 C18.8,18.1 18.8,18.2 18.9,18.4 Z" id="Shape"></path>
            <circle id="Oval" cx="21" cy="40.5" r="2.5"></circle>
            <circle id="Oval" cx="21" cy="28.8" r="2.5"></circle>
            <path d="M18.5,52.5 C18.6,53.8 19.7,54.7 21,54.7 C22.3,54.7 23.3,53.7 23.5,52.5 C23.5,52.4 23.5,52.3 23.5,52.3 C23.5,50.9 22.4,49.8 21,49.8 C19.6,49.8 18.5,50.9 18.5,52.3 C18.5,52.3 18.5,52.4 18.5,52.5 Z" id="Shape"></path>
            <path d="M19.2,65.8 C19.3,65.9 19.4,66 19.6,66.1 C19.7,66.2 19.9,66.3 20,66.3 C20.2,66.4 20.3,66.4 20.5,66.4 C20.7,66.4 20.8,66.4 21,66.4 C21.7,66.4 22.3,66.1 22.8,65.7 C23.3,65.2 23.5,64.6 23.5,63.9 C23.5,63.2 23.2,62.6 22.8,62.1 C21.9,61.2 20.2,61.2 19.3,62.1 C18.8,62.6 18.6,63.2 18.6,63.9 C18.6,64.6 18.8,65.3 19.2,65.8 Z" id="Shape"></path>
            <path d="M12.2,70.2 C11.2,71.2 11.2,72.8 12.2,73.7 L19.2,80.7 C19.7,81.2 20.3,81.4 21,81.4 C21.7,81.4 22.3,81.2 22.8,80.7 L29.8,73.7 C30.8,72.7 30.8,71.1 29.8,70.2 C28.8,69.3 27.2,69.2 26.3,70.2 L21,75.5 L15.8,70.3 C14.8,69.3 13.2,69.3 12.2,70.2 Z" id="Shape"></path>
        </g>
    </g>
</svg>