<?xml version="1.0" encoding="UTF-8"?>
<svg width="64px" height="53px" viewBox="0 0 64 53" version="1.1" xmlns="http://www.w3.org/2000/svg" xmlns:xlink="http://www.w3.org/1999/xlink">
    <!-- Generator: Sketch 46.2 (44496) - http://www.bohemiancoding.com/sketch -->
    <title>twitter</title>
    <desc>Created with Sketch.</desc>
    <defs></defs>
    <g id="Page-1" stroke="none" stroke-width="1" fill="none" fill-rule="evenodd">
        <g id="twitter" transform="translate(-1.000000, -1.000000)" fill-rule="nonzero" fill="#000000">
            <path d="M63.468,12.868 C63.468,12.868 64.328,11.395 64.425,10.54 C64.521,9.685 64.521,8.687 64.09,8.307 C63.659,7.927 61.937,8.545 60.55,8.972 C59.163,9.4 56.388,9.827 56.388,9.827 C56.388,9.827 54.666,4.744 51.891,2.747 C49.116,0.75 45.434,0.705 42.325,1.417 C39.215,2.131 35.388,4.127 33.618,6.217 C31.848,8.307 30.318,12.487 29.791,14.15 C29.264,15.813 28.211,18.71 27.015,18.948 C25.819,19.186 23.57,18.33 21.657,17.143 C19.743,15.955 14.767,11.917 12.28,9.637 C9.793,7.357 6.25,3.414 5.1,3.652 C3.953,3.89 2.613,8.022 2.613,10.968 C2.613,13.914 5.243,16.764 5.243,16.764 C4.191,20.612 4.813,23.32 5.818,25.314 C6.823,27.308 9.023,28.641 9.023,28.641 C8.736,29.971 8.879,31.589 9.358,33.014 C9.836,34.439 12.324,36.244 12.324,36.244 C12.324,36.244 10.841,37.434 8.497,38.098 C6.153,38.763 1.704,38.05 1.225,38.146 C0.747,38.241 1.177,44.179 1.177,45.036 C1.177,45.89 1.799,46.556 2.564,47.126 C3.329,47.696 9.501,50.783 18.16,53.016 C26.82,55.249 33.613,53.301 38.78,51.068 C43.947,48.835 49.497,41.994 53.085,36.483 C56.673,30.973 59.065,23.039 59.065,23.039 C59.065,23.039 60.405,22.326 62.318,20.901 C64.232,19.476 64.948,17.053 64.998,15.581 C65.048,14.106 63.468,12.871 63.468,12.871 L63.468,12.869 L63.468,12.868 Z M59.162,16.051 C59.736,16.051 62.176,14.675 62.462,14.911 C62.75,15.151 61.745,17.001 59.975,18.049 C58.205,19.094 56.865,19.617 56.53,19.522 C56.195,19.428 54.975,17.052 54.76,17.088 C54.545,17.124 53.97,17.588 54.114,17.908 C54.258,18.228 55.657,20.081 55.514,20.368 C55.369,20.652 55.298,20.795 55.082,20.616 C54.866,20.437 53.54,17.62 53.18,17.55 C52.82,17.478 52.32,18.262 52.534,18.618 C52.749,18.974 54.507,21.255 54.472,21.611 C54.437,21.967 54.042,23.608 53.898,23.359 C53.754,23.109 51.566,19.083 51.35,19.119 C51.135,19.155 50.632,20.081 50.74,20.366 C50.848,20.651 53.395,24.356 53.395,24.676 C53.395,24.998 52.642,26.601 52.39,26.316 C52.14,26.031 49.914,21.292 49.7,21.292 C49.484,21.292 48.874,22.077 48.91,22.292 C48.946,22.505 51.78,27.244 51.852,27.602 C51.924,27.956 51.242,29.987 50.992,29.845 C50.74,29.702 48.442,23.965 48.156,23.93 C47.869,23.894 47.438,24.75 47.546,25.106 C47.654,25.462 50.346,30.558 50.381,30.986 C50.419,31.413 49.951,32.161 49.809,32.054 C49.665,31.948 46.759,24.786 46.509,24.822 C46.257,24.858 45.826,25.57 46.077,26.39 C46.327,27.21 49.27,32.554 49.307,32.982 C49.342,33.41 48.587,34.407 48.481,34.229 C48.371,34.051 45.287,27.245 45.001,27.317 C44.713,27.387 44.318,28.457 44.569,28.885 C44.819,29.315 47.979,34.835 47.979,35.015 C47.979,35.195 47.153,36.475 46.937,36.369 C46.722,36.262 44.067,29.955 43.779,29.991 C43.492,30.026 42.954,30.667 43.277,31.381 C43.6,32.095 46.399,36.831 46.291,37.151 C46.183,37.471 45.431,38.541 45.286,38.291 C45.142,38.041 42.308,31.591 41.986,31.591 C41.664,31.591 40.873,32.306 41.16,32.876 C41.445,33.446 44.64,39.076 44.495,39.218 C44.351,39.361 43.239,40.821 43.06,40.715 C42.882,40.609 39.832,34.089 39.51,34.195 C39.186,34.303 38.72,34.802 38.97,35.265 C39.222,35.728 42.38,41.251 42.308,41.429 C42.236,41.607 41.448,42.319 41.232,42.069 C41.017,41.821 38.074,35.977 37.752,35.977 C37.428,35.977 36.746,36.903 36.962,37.26 C37.177,37.615 40.622,42.924 40.478,43.174 C40.334,43.424 39.258,44.35 39.115,44.172 C38.971,43.994 36.315,38.614 35.778,38.649 C35.24,38.684 34.845,39.503 35.096,39.789 C35.346,40.073 38.038,44.599 38.038,44.599 C38.038,44.599 36.746,45.382 36.531,45.132 C36.318,44.882 34.129,39.929 33.914,39.929 C33.699,39.929 32.766,40.499 33.16,41.069 C33.554,41.639 35.742,45.416 35.527,45.594 C35.312,45.772 34.63,46.094 34.415,45.844 C34.2,45.594 31.975,40.641 31.76,40.641 C31.545,40.641 30.683,40.996 30.898,41.353 C31.113,41.71 33.41,46.341 33.302,46.413 C33.194,46.483 31.759,46.913 31.58,46.733 C31.4,46.556 29.463,42.423 29.14,42.423 C28.817,42.423 28.494,42.923 28.566,43.171 C28.638,43.421 30.683,46.984 30.576,47.055 C30.466,47.125 29.068,47.34 28.924,47.233 C28.78,47.126 26.951,42.85 26.664,42.779 C26.377,42.708 25.73,43.279 25.874,43.669 C26.018,44.062 27.668,47.233 27.489,47.304 C27.309,47.374 26.089,47.447 25.909,47.197 C25.729,46.947 24.259,43.491 23.935,43.42 C23.612,43.35 23.038,43.527 23.253,44.06 C23.468,44.593 25.155,47.624 24.903,47.624 C24.651,47.624 23.289,47.624 23.146,47.517 C23.002,47.41 21.531,43.883 21.28,43.811 C21.03,43.741 20.205,43.669 20.348,44.131 C20.491,44.596 22.068,47.304 21.782,47.304 C21.496,47.304 20.024,47.019 19.772,46.77 C19.522,46.52 18.194,43.277 17.907,43.242 C17.619,43.207 17.009,43.528 17.081,43.956 C17.153,44.384 18.446,46.7 18.121,46.628 C17.801,46.558 16.329,46.308 16.291,46.128 C16.257,45.951 14.821,42.958 14.571,42.815 C14.321,42.672 13.459,42.851 13.674,43.243 C13.889,43.636 14.822,45.631 14.679,45.631 C14.536,45.631 11.164,44.634 8.365,43.209 C5.566,41.784 3.055,39.575 3.377,39.503 C3.699,39.431 7.324,39.716 9.8,38.789 C12.276,37.863 14.752,36.901 14.895,36.615 C15.039,36.33 14.608,35.689 14.5,35.653 C14.393,35.617 11.38,34.691 10.733,32.517 C10.087,30.344 10.589,27.992 10.195,27.707 C9.8,27.422 7.791,26.567 6.785,23.467 C5.779,20.367 6.895,16.163 6.678,15.877 C6.463,15.593 6.116,15.011 5.768,15.107 C5.408,15.205 4.238,12.777 4.19,10.497 C4.142,8.217 5.147,5.177 5.386,5.177 C5.626,5.177 12.036,11.353 15.433,14.204 C18.83,17.055 22.8,20 25.145,20.38 C27.489,20.76 28.445,20.855 29.545,18.622 C30.645,16.388 31.842,10.925 33.517,8.407 C35.191,5.889 38.637,3.039 43.085,2.327 C47.533,1.615 50.883,2.849 52.653,5.319 C54.423,7.789 54.519,11.019 54.949,11.304 C55.379,11.589 57.291,11.494 59.589,10.686 C61.884,9.878 62.699,9.688 62.841,9.688 C62.985,9.688 62.315,11.16 60.831,12.395 C59.349,13.63 58.296,14.485 58.296,15.055 C58.296,15.625 58.586,16.051 59.16,16.051 L59.162,16.049 L59.162,16.051 Z M7.11,11.884 C6.428,11.35 6.715,10.067 6.895,9.14 C7.075,8.213 5.603,8.426 5.352,9.46 C5.102,10.493 5.388,11.92 6.212,12.63 C7.038,13.344 7.812,13.3 8.042,13.13 C8.33,12.917 7.792,12.418 7.11,11.883 L7.11,11.884 Z M27.24,22.039 C26.702,21.969 25.374,22.679 23.975,21.969 C22.575,21.255 21.212,19.581 20.602,19.795 C20.174,19.945 19.742,20.508 20.782,21.47 C21.822,22.432 23.759,23.25 25.338,23.25 C26.917,23.25 27.778,22.11 27.24,22.038 L27.24,22.039 Z M37.07,9.462 C36.712,9.356 35.205,10.352 34.488,11.602 C33.77,12.848 32.694,15.235 33.518,15.699 C34.072,16.009 34.344,15.629 34.775,14.274 C35.205,12.921 36.031,11.354 36.497,10.784 C36.964,10.212 37.43,9.57 37.071,9.464 L37.07,9.462 Z" id="Shape"></path>
        </g>
    </g>
</svg>