<?xml version="1.0" encoding="UTF-8" standalone="no"?>
<svg
   xmlns:dc="http://purl.org/dc/elements/1.1/"
   xmlns:cc="http://creativecommons.org/ns#"
   xmlns:rdf="http://www.w3.org/1999/02/22-rdf-syntax-ns#"
   xmlns:svg="http://www.w3.org/2000/svg"
   xmlns="http://www.w3.org/2000/svg"
   xmlns:sodipodi="http://sodipodi.sourceforge.net/DTD/sodipodi-0.dtd"
   xmlns:inkscape="http://www.inkscape.org/namespaces/inkscape"
   version="1.1"
   x="0px"
   y="0px"
   viewBox="0 0 60 60"
   id="svg2"
   inkscape:version="0.91 r13725"
   sodipodi:docname="noun_685410_cc.svg"
   width="60"
   height="60">
  <metadata
     id="metadata16">
    <rdf:RDF>
      <cc:Work
         rdf:about="">
        <dc:format>image/svg+xml</dc:format>
        <dc:type
           rdf:resource="http://purl.org/dc/dcmitype/StillImage" />
        <dc:title></dc:title>
      </cc:Work>
    </rdf:RDF>
  </metadata>
  <defs
     id="defs14" />
  <sodipodi:namedview
     pagecolor="#ffffff"
     bordercolor="#666666"
     borderopacity="1"
     objecttolerance="10"
     gridtolerance="10"
     guidetolerance="10"
     inkscape:pageopacity="0"
     inkscape:pageshadow="2"
     inkscape:window-width="1093"
     inkscape:window-height="592"
     id="namedview12"
     showgrid="false"
     inkscape:zoom="1.888"
     inkscape:cx="50"
     inkscape:cy="62.5"
     inkscape:window-x="0"
     inkscape:window-y="0"
     inkscape:window-maximized="0"
     inkscape:current-layer="svg2" />
  <g
     transform="matrix(0.83333338,0,0,1.052631,-11.666669,-1025.1175)"
     id="g4"
     style="fill:#ffffff">
    <path
       style="color:#000000;text-indent:0;text-transform:none;direction:ltr;block-progression:tb;baseline-shift:baseline;display:inline;overflow:visible;visibility:visible;fill:#ffffff;fill-opacity:1;stroke:none;marker:none;enable-background:accumulate"
       d="m 33.991322,973.86217 c 0,17.6667 0,35.33333 0,53.00003 l 1.99914,0 0,-51.00003 7.99652,0 0,51.00003 1.99914,0 c 0,-17.6667 0,-35.33333 0,-53.00003 -4.13083,0 -8.43776,0 -11.9948,0 z m 19.991326,10 c 0,14.3333 0,28.66673 0,43.00003 l 1.99913,0 0,-41.00003 7.99653,0 0,41.00003 1.99913,0 c 0,-14.3333 0,-28.66673 0,-43.00003 -4.13083,0 -8.43776,0 -11.99479,0 z m -39.982646,8 c 0,11.66673 0,23.33333 0,35.00003 l 1.99913,0 0,-33.00003 7.99653,0 0,33.00003 1.99913,0 c 0,-11.6667 0,-23.3333 0,-35.00003 -4.13082,0 -8.43775,0 -11.99479,0 z m 59.973966,4 c 0,10.33333 0,20.66673 0,31.00003 l 1.99913,0 0,-29.00003 7.99653,0 0,29.00003 1.99913,0 c 0,-10.3333 0,-20.6667 0,-31.00003 -4.13082,0 -8.43775,0 -11.99479,0 z m -59.942726,33.00003 0,2 71.968756,0 0,-2 z"
       visibility="visible"
       display="inline"
       overflow="visible"
       id="path6"
       inkscape:connector-curvature="0" />
  </g>
</svg>
