<svg width="100" height="100" xmlns="http://www.w3.org/2000/svg">
 <title>finite-icons</title>

 <g>
  <title>background</title>
  <rect fill="none" id="canvas_background" height="102" width="102" y="-1" x="-1"/>
 </g>
 <g>
  <title>Layer 1</title>
  <g stroke="null" id="svg_6">
   <ellipse stroke="null" id="svg_1" fill="#5b5a6c" ry="10.205299" rx="6.803533" cy="65.650314" cx="29.589401"/>
   <ellipse stroke="null" id="svg_2" fill="#5b5a6c" ry="10.205299" rx="6.803533" cy="65.650314" cx="70.410597"/>
   <path stroke="null" id="svg_3" fill="#f27c5e" d="m94.222961,21.427352l-3.401766,0l-10.790811,-16.186216a3.384553,3.384553 0 0 0 -5.632509,0l-10.790811,16.186216l-27.21413,0l-10.790811,-16.186216a3.384553,3.384553 0 0 0 -5.632509,0l-10.790811,16.186216l-3.401766,0a3.401766,3.401766 0 0 0 -3.401766,3.401766l0,68.035326a3.401766,3.401766 0 0 0 3.401766,3.401766l88.445924,0a3.401766,3.401766 0 0 0 3.401766,-3.401766l0,-68.035326a3.401766,3.401766 0 0 0 -3.401766,-3.401766zm-10.205299,61.231793l-68.035326,0l0,-34.017663l68.035326,0l0,34.017663z"/>
  </g>
 </g>
</svg>