<?xml version="1.0" encoding="UTF-8" standalone="no"?>
<svg
   xmlns:dc="http://purl.org/dc/elements/1.1/"
   xmlns:cc="http://creativecommons.org/ns#"
   xmlns:rdf="http://www.w3.org/1999/02/22-rdf-syntax-ns#"
   xmlns:svg="http://www.w3.org/2000/svg"
   xmlns="http://www.w3.org/2000/svg"
   xmlns:sodipodi="http://sodipodi.sourceforge.net/DTD/sodipodi-0.dtd"
   xmlns:inkscape="http://www.inkscape.org/namespaces/inkscape"
   version="1.1"
   x="0px"
   y="0px"
   viewBox="0 0 60 60"
   enable-background="new 0 0 100 100"
   xml:space="preserve"
   id="svg2"
   inkscape:version="0.91 r13725"
   sodipodi:docname="noun_380017_cc.svg"
   width="60"
   height="60"><metadata
     id="metadata34"><rdf:RDF><cc:Work
         rdf:about=""><dc:format>image/svg+xml</dc:format><dc:type
           rdf:resource="http://purl.org/dc/dcmitype/StillImage" /><dc:title></dc:title></cc:Work></rdf:RDF></metadata><defs
     id="defs32" /><sodipodi:namedview
     pagecolor="#ffffff"
     bordercolor="#666666"
     borderopacity="1"
     objecttolerance="10"
     gridtolerance="10"
     guidetolerance="10"
     inkscape:pageopacity="0"
     inkscape:pageshadow="2"
     inkscape:window-width="980"
     inkscape:window-height="621"
     id="namedview30"
     showgrid="false"
     inkscape:zoom="1.888"
     inkscape:cx="50"
     inkscape:cy="62.259004"
     inkscape:window-x="0"
     inkscape:window-y="0"
     inkscape:window-maximized="0"
     inkscape:current-layer="svg2" /><ellipse
     cx="31.363636"
     cy="5.2173915"
     id="circle4"
     style="fill:#ffffff"
     rx="5.4545455"
     ry="5.2173915" /><ellipse
     cx="31.363636"
     cy="57.391304"
     id="circle6"
     style="fill:#ffffff"
     rx="2.7272727"
     ry="2.6086957" /><ellipse
     transform="matrix(0.87537761,-0.48343979,0.51676719,0.85612596,0,0)"
     cx="10.682079"
     cy="16.190796"
     id="ellipse8"
     style="fill:#ffffff"
     rx="4.9464364"
     ry="4.8377681" /><ellipse
     transform="matrix(0.87537761,-0.48343979,0.51676719,0.85612596,0,0)"
     cx="10.680662"
     cy="69.000702"
     id="ellipse10"
     style="fill:#ffffff"
     rx="2.2483802"
     ry="2.1989856" /><ellipse
     transform="matrix(0.51676719,-0.85612596,0.87537761,0.48343979,0,0)"
     cx="-12.267994"
     cy="16.078634"
     id="ellipse12"
     style="fill:#ffffff"
     rx="4.3979712"
     ry="4.4967604" /><ellipse
     transform="matrix(0.51676719,-0.85612596,0.87537761,0.48343979,0,0)"
     cx="-12.234962"
     cy="70.041237"
     id="ellipse14"
     style="fill:#ffffff"
     rx="1.7591885"
     ry="1.7987043" /><ellipse
     cx="4.090909"
     cy="31.304348"
     id="circle16"
     style="fill:#ffffff"
     rx="4.090909"
     ry="3.9130435" /><ellipse
     cx="58.636364"
     cy="31.304348"
     id="circle18"
     style="fill:#ffffff"
     rx="1.3636364"
     ry="1.3043479" /><ellipse
     transform="matrix(0.87537761,-0.48343979,0.51676719,0.85612596,0,0)"
     cx="-16.316061"
     cy="42.595203"
     id="ellipse20"
     style="fill:#ffffff"
     rx="3.5974085"
     ry="3.5183771" /><ellipse
     transform="matrix(0.87537761,-0.48343979,0.51676719,0.85612596,0,0)"
     cx="37.679535"
     cy="42.595581"
     id="ellipse22"
     style="fill:#ffffff"
     rx="0.89935213"
     ry="0.87959427" /><ellipse
     transform="matrix(0.51676719,-0.85612596,0.87537761,0.48343979,0,0)"
     cx="-38.640194"
     cy="43.076977"
     id="ellipse24"
     style="fill:#ffffff"
     rx="3.0785799"
     ry="3.1477325" /></svg>