<svg width="100" height="100" xmlns="http://www.w3.org/2000/svg">

 <g>
  <title>background</title>
  <rect fill="none" id="canvas_background" height="102" width="102" y="-1" x="-1"/>
 </g>
 <g>
  <title>Layer 1</title>
  <g stroke="null" id="svg_1">
   <g stroke="null" id="svg_2">
    <path fill="#435c95" stroke="null" id="svg_3" d="m86.478665,90.049999l-73.12739,0c-1.870701,0 -3.401274,-1.530573 -3.401274,-3.401274s1.530573,-3.401274 3.401274,-3.401274l73.297454,0c1.870701,0 3.401274,1.530573 3.401274,3.401274s-1.700637,3.401274 -3.571338,3.401274z"/>
   </g>
   <g stroke="null" id="svg_4">
    <g stroke="null" id="svg_5">
     <path fill="#435c95" stroke="null" id="svg_6" d="m29.67739,75.764648l-9.353503,0c-1.870701,0 -3.401274,-1.530573 -3.401274,-3.401274s1.530573,-3.401274 3.401274,-3.401274l9.353503,0c1.870701,0 3.401274,1.530573 3.401274,3.401274s-1.530573,3.401274 -3.401274,3.401274z"/>
    </g>
    <g stroke="null" id="svg_7">
     <path fill="#435c95" stroke="null" id="svg_8" d="m29.67739,61.13917l-9.353503,0c-1.870701,0 -3.401274,-1.530573 -3.401274,-3.401274s1.530573,-3.401274 3.401274,-3.401274l9.353503,0c1.870701,0 3.401274,1.530573 3.401274,3.401274s-1.530573,3.401274 -3.401274,3.401274z"/>
    </g>
    <g stroke="null" id="svg_9">
     <path fill="#435c95" stroke="null" id="svg_10" d="m29.67739,46.343628l-9.353503,0c-1.870701,0 -3.401274,-1.530573 -3.401274,-3.401274s1.530573,-3.401274 3.401274,-3.401274l9.353503,0c1.870701,0 3.401274,1.530573 3.401274,3.401274s-1.530573,3.401274 -3.401274,3.401274z"/>
    </g>
    <g stroke="null" id="svg_11">
     <path fill="#435c95" stroke="null" id="svg_12" d="m29.67739,31.548087l-9.353503,0c-1.870701,0 -3.401274,-1.530573 -3.401274,-3.401274s1.530573,-3.401274 3.401274,-3.401274l9.353503,0c1.870701,0 3.401274,1.530573 3.401274,3.401274s-1.530573,3.401274 -3.401274,3.401274z"/>
    </g>
    <g stroke="null" id="svg_13">
     <path fill="#435c95" stroke="null" id="svg_14" d="m29.67739,16.752545l-9.353503,0c-1.870701,0 -3.401274,-1.530573 -3.401274,-3.401274s1.530573,-3.401274 3.401274,-3.401274l9.353503,0c1.870701,0 3.401274,1.530573 3.401274,3.401274s-1.530573,3.401274 -3.401274,3.401274z"/>
    </g>
   </g>
   <g stroke="null" id="svg_15">
    <path fill="#435c95" stroke="null" id="svg_16" d="m54.50669,75.764648l-9.353503,0c-1.870701,0 -3.401274,-1.530573 -3.401274,-3.401274s1.530573,-3.401274 3.401274,-3.401274l9.353503,0c1.870701,0 3.401274,1.530573 3.401274,3.401274s-1.530573,3.401274 -3.401274,3.401274z"/>
   </g>
   <g stroke="null" id="svg_17">
    <path fill="#435c95" stroke="null" id="svg_18" d="m54.50669,61.13917l-9.353503,0c-1.870701,0 -3.401274,-1.530573 -3.401274,-3.401274s1.530573,-3.401274 3.401274,-3.401274l9.353503,0c1.870701,0 3.401274,1.530573 3.401274,3.401274s-1.530573,3.401274 -3.401274,3.401274z"/>
   </g>
   <g stroke="null" id="svg_19">
    <path fill="#435c95" stroke="null" id="svg_20" d="m54.50669,46.343628l-9.353503,0c-1.870701,0 -3.401274,-1.530573 -3.401274,-3.401274s1.530573,-3.401274 3.401274,-3.401274l9.353503,0c1.870701,0 3.401274,1.530573 3.401274,3.401274s-1.530573,3.401274 -3.401274,3.401274z"/>
   </g>
   <g stroke="null" id="svg_21">
    <path fill="#435c95" stroke="null" id="svg_22" d="m79.506054,75.764648l-9.353503,0c-1.870701,0 -3.401274,-1.530573 -3.401274,-3.401274s1.530573,-3.401274 3.401274,-3.401274l9.353503,0c1.870701,0 3.401274,1.530573 3.401274,3.401274s-1.530573,3.401274 -3.401274,3.401274z"/>
   </g>
   <g stroke="null" id="svg_23">
    <path fill="#435c95" stroke="null" id="svg_24" d="m79.506054,61.13917l-9.353503,0c-1.870701,0 -3.401274,-1.530573 -3.401274,-3.401274s1.530573,-3.401274 3.401274,-3.401274l9.353503,0c1.870701,0 3.401274,1.530573 3.401274,3.401274s-1.530573,3.401274 -3.401274,3.401274z"/>
   </g>
  </g>
 </g>
</svg>