<svg width="100" height="100" xmlns="http://www.w3.org/2000/svg">
 <title>business_icons_tnp</title>

 <g>
  <title>background</title>
  <rect fill="none" id="canvas_background" height="102" width="102" y="-1" x="-1"/>
 </g>
 <g>
  <title>Layer 1</title>
  <path fill="#435c95" stroke="null" id="svg_1" d="m59.2,11.988861l-18.4,0a1.84,2.235949 0 0 0 -1.84,2.235949l0,22.359494a1.84,2.235949 0 0 0 1.84,2.235949l18.4,0a1.84,2.235949 0 0 0 1.84,-2.235949l0,-22.359494a1.84,2.235949 0 0 0 -1.84,-2.235949zm-1.84,22.359494l-14.72,0l0,-17.887595l14.72,0l0,17.887595zm36.800001,26.831392l-18.4,0a1.84,2.235949 0 0 0 -1.84,2.235949l0,22.359494a1.84,2.235949 0 0 0 1.84,2.235949l18.4,0a1.84,2.235949 0 0 0 1.84,-2.235949l0,-22.359494a1.84,2.235949 0 0 0 -1.84,-2.235949zm-1.84,22.359494l-14.72,0l0,-17.887595l14.72,0l0,17.887595zm-33.120001,-22.359494l-18.4,0a1.84,2.235949 0 0 0 -1.84,2.235949l0,22.359494a1.84,2.235949 0 0 0 1.84,2.235949l18.4,0a1.84,2.235949 0 0 0 1.84,-2.235949l0,-22.359494a1.84,2.235949 0 0 0 -1.84,-2.235949zm-1.84,22.359494l-14.72,0l0,-17.887595l14.72,0l0,17.887595zm-33.120001,-22.359494l-18.4,0a1.84,2.235949 0 0 0 -1.84,2.235949l0,22.359494a1.84,2.235949 0 0 0 1.84,2.235949l18.4,0a1.84,2.235949 0 0 0 1.84,-2.235949l0,-22.359494a1.84,2.235949 0 0 0 -1.84,-2.235949zm-1.84,22.359494l-14.72,0l0,-17.887595l14.72,0l0,17.887595zm10.5064,-44.473033a1.84,2.235949 0 0 1 0,3.152689l-11.04,13.214461a1.84,2.235949 0 0 1 -2.5944,-3.197408l11.04,-13.214461a1.84,2.235949 0 0 1 2.5944,0.044719zm45.245601,16.389509l-11.04,-13.214461a1.84,2.235949 0 0 1 2.576,-3.197408l11.04,13.214461a1.84,2.235949 0 1 1 -2.576,3.197408z"/>
 </g>
</svg>