<?xml version="1.0" encoding="UTF-8" standalone="no"?>
<svg
   xmlns:dc="http://purl.org/dc/elements/1.1/"
   xmlns:cc="http://creativecommons.org/ns#"
   xmlns:rdf="http://www.w3.org/1999/02/22-rdf-syntax-ns#"
   xmlns:svg="http://www.w3.org/2000/svg"
   xmlns="http://www.w3.org/2000/svg"
   xmlns:sodipodi="http://sodipodi.sourceforge.net/DTD/sodipodi-0.dtd"
   xmlns:inkscape="http://www.inkscape.org/namespaces/inkscape"
   viewBox="0 0 60 60"
   version="1.1"
   x="0px"
   y="0px"
   id="svg2"
   inkscape:version="0.91 r13725"
   sodipodi:docname="noun_574653_cc.svg"
   width="60"
   height="60">
  <metadata
     id="metadata64">
    <rdf:RDF>
      <cc:Work
         rdf:about="">
        <dc:format>image/svg+xml</dc:format>
        <dc:type
           rdf:resource="http://purl.org/dc/dcmitype/StillImage" />
        <dc:title>Group 108</dc:title>
      </cc:Work>
    </rdf:RDF>
  </metadata>
  <defs
     id="defs62" />
  <sodipodi:namedview
     pagecolor="#ffffff"
     bordercolor="#666666"
     borderopacity="1"
     objecttolerance="10"
     gridtolerance="10"
     guidetolerance="10"
     inkscape:pageopacity="0"
     inkscape:pageshadow="2"
     inkscape:window-width="1028"
     inkscape:window-height="692"
     id="namedview60"
     showgrid="false"
     inkscape:zoom="3.2"
     inkscape:cx="-10.0625"
     inkscape:cy="36.875"
     inkscape:window-x="0"
     inkscape:window-y="0"
     inkscape:window-maximized="0"
     inkscape:current-layer="g8" />
  <title
     id="title4">Group 108</title>
  <desc
     id="desc6">Created with Sketch.</desc>
  <g
     id="g8"
     style="fill:none;fill-rule:evenodd;stroke:none;stroke-width:1"
     transform="matrix(1.0344828,0,0,1.0169492,0,0.00498165)">
    <g
       transform="translate(-721,-1574)"
       id="g10"
       style="fill:#FFFFFF">
      <g
         transform="translate(721,1573)"
         id="g12">
        <path
           d="m 20,25.9951 c -1.654,0 -3,1.346 -3,3 0,1.654 1.346,3 3,3 1.654,0 3,-1.346 3,-3 0,-1.654 -1.346,-3 -3,-3 m 0,8 c -2.757,0 -5,-2.243 -5,-5 0,-2.757 2.243,-5 5,-5 2.757,0 5,2.243 5,5 0,2.757 -2.243,5 -5,5"
           id="path14"
           inkscape:connector-curvature="0" />
        <path
           d="m 37,11.9951 c -1.654,0 -3,1.346 -3,3 0,1.654 1.346,3 3,3 1.654,0 3,-1.346 3,-3 0,-1.654 -1.346,-3 -3,-3 m 0,8 c -2.757,0 -5,-2.243 -5,-5 0,-2.757 2.243,-5 5,-5 2.757,0 5,2.243 5,5 0,2.757 -2.243,5 -5,5"
           id="path16"
           inkscape:connector-curvature="0" />
        <path
           d="m 53,39.9951 c -1.654,0 -3,1.346 -3,3 0,1.654 1.346,3 3,3 1.654,0 3,-1.346 3,-3 0,-1.654 -1.346,-3 -3,-3 m 0,8 c -2.757,0 -5,-2.243 -5,-5 0,-2.757 2.243,-5 5,-5 2.757,0 5,2.243 5,5 0,2.757 -2.243,5 -5,5"
           id="path18"
           inkscape:connector-curvature="0" />
        <path
           d="m 5,9.9951 c -1.654,0 -3,1.346 -3,3 0,1.654 1.346,3 3,3 1.654,0 3,-1.346 3,-3 0,-1.654 -1.346,-3 -3,-3 m 0,8 c -2.757,0 -5,-2.243 -5,-5 0,-2.757 2.243,-5 5,-5 2.757,0 5,2.243 5,5 0,2.757 -2.243,5 -5,5"
           id="path20"
           inkscape:connector-curvature="0" />
        <path
           d="m 20,43.9951 c -1.103,0 -2,0.897 -2,2 0,1.103 0.897,2 2,2 1.103,0 2,-0.897 2,-2 0,-1.103 -0.897,-2 -2,-2 m 0,6 c -2.206,0 -4,-1.794 -4,-4 0,-2.206 1.794,-4 4,-4 2.206,0 4,1.794 4,4 0,2.206 -1.794,4 -4,4"
           id="path22"
           inkscape:connector-curvature="0" />
        <path
           d="m 37,30.9951 c -1.103,0 -2,0.897 -2,2 0,1.103 0.897,2 2,2 1.103,0 2,-0.897 2,-2 0,-1.103 -0.897,-2 -2,-2 m 0,6 c -2.206,0 -4,-1.794 -4,-4 0,-2.206 1.794,-4 4,-4 2.206,0 4,1.794 4,4 0,2.206 -1.794,4 -4,4"
           id="path24"
           inkscape:connector-curvature="0" />
        <path
           d="m 5,33.9951 c -1.103,0 -2,0.897 -2,2 0,1.103 0.897,2 2,2 1.103,0 2,-0.897 2,-2 0,-1.103 -0.897,-2 -2,-2 m 0,6 c -2.206,0 -4,-1.794 -4,-4 0,-2.206 1.794,-4 4,-4 2.206,0 4,1.794 4,4 0,2.206 -1.794,4 -4,4"
           id="path26"
           inkscape:connector-curvature="0" />
        <path
           d="m 24,2.9951 c -1.103,0 -2,0.897 -2,2 0,1.103 0.897,2 2,2 1.103,0 2,-0.897 2,-2 0,-1.103 -0.897,-2 -2,-2 m 0,6 c -2.206,0 -4,-1.794 -4,-4 0,-2.206 1.794,-4 4,-4 2.206,0 4,1.794 4,4 0,2.206 -1.794,4 -4,4"
           id="path28"
           inkscape:connector-curvature="0" />
        <path
           d="m 19,43.995 2,0 0,-11 -2,0 0,11 z"
           id="path30"
           inkscape:connector-curvature="0" />
        <path
           d="m 36,29.995 2,0 0,-11 -2,0 0,11 z"
           id="path32"
           inkscape:connector-curvature="0" />
        <path
           d="m 34.7373,32.9599 -11,-3 0.525,-1.93 11,3 -0.525,1.93 z"
           id="path34"
           inkscape:connector-curvature="0" />
        <path
           d="m 16.2568,26.664 -9,-10 1.486,-1.338 9,10 -1.486,1.338 z"
           id="path36"
           inkscape:connector-curvature="0" />
        <path
           d="m 8.4473,34.8896 -0.895,-1.789 8,-4 0.895,1.789 -8,4 z"
           id="path38"
           inkscape:connector-curvature="0" />
        <path
           d="m 32.3496,13.7539 -7,-6 1.301,-1.518 7,6 -1.301,1.518 z"
           id="path40"
           inkscape:connector-curvature="0" />
        <path
           d="m 49.4854,40.8525 -10,-6 1.029,-1.715 10,6 -1.029,1.715 z"
           id="path42"
           inkscape:connector-curvature="0" />
        <path
           d="m 49,2.9951 c -1.103,0 -2,0.897 -2,2 0,1.103 0.897,2 2,2 1.103,0 2,-0.897 2,-2 0,-1.103 -0.897,-2 -2,-2 m 0,6 c -2.206,0 -4,-1.794 -4,-4 0,-2.206 1.794,-4 4,-4 2.206,0 4,1.794 4,4 0,2.206 -1.794,4 -4,4"
           id="path44"
           inkscape:connector-curvature="0" />
        <path
           d="m 40.6504,13.7539 -1.301,-1.518 7,-6 1.301,1.518 -7,6 z"
           id="path46"
           inkscape:connector-curvature="0" />
        <path
           d="m 32,53.9951 c -1.103,0 -2,0.897 -2,2 0,1.103 0.897,2 2,2 1.103,0 2,-0.897 2,-2 0,-1.103 -0.897,-2 -2,-2 m 0,6 c -2.206,0 -4,-1.794 -4,-4 0,-2.206 1.794,-4 4,-4 2.206,0 4,1.794 4,4 0,2.206 -1.794,4 -4,4"
           id="path48"
           inkscape:connector-curvature="0" />
        <path
           d="m 29.3496,54.7539 -7,-6 1.301,-1.518 7,6 -1.301,1.518 z"
           id="path50"
           inkscape:connector-curvature="0" />
        <path
           d="m 8,53.9951 c -1.103,0 -2,0.897 -2,2 0,1.103 0.897,2 2,2 1.103,0 2,-0.897 2,-2 0,-1.103 -0.897,-2 -2,-2 m 0,6 c -2.206,0 -4,-1.794 -4,-4 0,-2.206 1.794,-4 4,-4 2.206,0 4,1.794 4,4 0,2.206 -1.794,4 -4,4"
           id="path52"
           inkscape:connector-curvature="0" />
        <path
           d="m 10.6504,54.7539 -1.301,-1.518 7,-6 1.301,1.518 -7,6 z"
           id="path54"
           inkscape:connector-curvature="0" />
      </g>
    </g>
  </g>
</svg>
