<svg width="100" height="90" xmlns="http://www.w3.org/2000/svg">

 <g>
  <title>background</title>
  <rect fill="none" id="canvas_background" height="92" width="102" y="-1" x="-1"/>
 </g>
 <g>
  <title>Layer 1</title>
  <path fill="#f27c5e" id="svg_1" d="m94,13.789117c-12.2,0 -24.2,6.7 -34.2,13.1c-12.3,7.9 -23,19 -30.9,31.3c-3.4,-6.7 -8.6,-13.6 -14.7,-18.3c0.2,-3.3 0.5,-6.6 0.7,-9.8c0.4,-4.6 1.1,-9.3 1.3,-13.9c0,-0.4 0.1,-1 0.2,-1.4c0.1,0 0.1,0 0.2,-0.1c1.7,-0.6 4.2,-0.2 6,-0.3c14.7,-0.4 29.5,-0.3 44.1,0.3c1.6,0.1 1.5,-2.3 0,-2.4c-14.4,-1 -28.8,-0.7 -43.2,-0.5c-2.3,0 -7.7,-0.9 -9.3,1.2c-1.6,1.9 -1.3,7.2 -1.5,9.5c-0.6,5.1 -1.1,10.2 -1.5,15.3c-1.6,-1 -3.3,-1.9 -5,-2.5c-0.9,-0.4 -1.5,0.9 -0.9,1.6c1.7,1.9 3.6,3.6 5.5,5.3c-0.6,6.8 -1.1,13.8 -1.5,20.7c-0.3,3.8 -1.3,8.5 -0.7,12.2c0.5,3 2.9,2.5 5.5,2.7c18.2,0.9 36.6,0.7 54.8,0.2c1,0 1.7,-0.8 1.8,-1.8c1.8,-17.6 3,-35.3 3.9,-53c0,-0.8 -0.2,-1.4 -0.6,-1.8c6.3,-3.1 13,-5.1 20,-5.7c1.3,0 1.3,-1.9 0,-1.9zm-81.9,61.4c0,0 0.1,-0.1 0.1,-0.2c0,0.1 0,0.1 -0.1,0.2zm55.2,-0.7c-15,0.4 -30,0.2 -45,-0.1c-2.7,-0.1 -5.5,-0.1 -8.2,-0.2c-0.5,0 -1.3,-0.2 -1.9,-0.1c0.1,-2.1 0,-6.3 0.1,-7.3c0.4,-7.3 0.9,-14.6 1.4,-21.9c1,1 2,2 3,3.2c4,4.7 7.3,10.1 9.5,15.9c0.7,1.9 3.3,2.4 4.4,0.6c9.1,-14.8 22.5,-31 38.8,-40.5c-0.9,16.7 -0.6,33.6 -2.1,50.4z"/>
 </g>
</svg>