<svg width="100" height="100" xmlns="http://www.w3.org/2000/svg">

 <g>
  <title>background</title>
  <rect fill="none" id="canvas_background" height="102" width="102" y="-1" x="-1"/>
 </g>
 <g>
  <title>Layer 1</title>
  <g id="svg_7">
   <path id="svg_1" fill-rule="evenodd" fill="#5b5a6c" d="m1.01558,60.49629c-0.46254,13.39518 9.52627,18.90951 9.52627,18.90951c0.21769,-0.10643 3.98789,-2.04829 7.00861,-10.93261l-16.53488,-7.9769z"/>
   <path id="svg_2" fill-rule="evenodd" fill="#f27c5e" d="m57.28834,10c-9.60984,0 -34.24025,3.23119 -35.00904,34.61402c-0.76878,31.38279 -10.71705,35.96723 -10.71705,35.96723c35.67296,19.07283 81.51262,11.45957 76.4483,-44.01535c0,-20.51951 -21.11236,-26.5659 -30.72221,-26.5659zm13.71102,14.77862c5.22154,0 9.45822,4.43453 9.45822,9.89989c0,5.46537 -4.23668,9.8999 -9.45822,9.8999c-5.22154,0 -9.45823,-4.43453 -9.45823,-9.8999c0,-5.46536 4.23669,-9.89989 9.45823,-9.89989z"/>
   <path id="svg_3" fill-rule="evenodd" fill="#5b5a6c" d="m89.16759,37.56301c0.47987,5.92158 0.38135,11.29455 -0.23816,16.13184c0.01753,0.01971 0.01633,0.05151 0.03397,0.07122l10.0366,-8.22617l-9.83247,-7.97689l0.00006,0z"/>
   <path id="svg_4" fill-rule="nonzero" fill="#5b5a6c" d="m75.17855,34.67956c0,2.42136 -1.87533,4.38427 -4.18867,4.38427c-2.31334,0 -4.18868,-1.96291 -4.18868,-4.38427c0,-2.42137 1.87534,-4.38428 4.18868,-4.38428c2.31334,0 4.18867,1.96291 4.18867,4.38428z"/>
  </g>
 </g>
</svg>