<?xml version="1.0" encoding="UTF-8" standalone="no"?>
<svg
   xmlns:dc="http://purl.org/dc/elements/1.1/"
   xmlns:cc="http://creativecommons.org/ns#"
   xmlns:rdf="http://www.w3.org/1999/02/22-rdf-syntax-ns#"
   xmlns:svg="http://www.w3.org/2000/svg"
   xmlns="http://www.w3.org/2000/svg"
   xmlns:sodipodi="http://sodipodi.sourceforge.net/DTD/sodipodi-0.dtd"
   xmlns:inkscape="http://www.inkscape.org/namespaces/inkscape"
   version="1.1"
   x="0px"
   y="0px"
   viewBox="0 0 60 60"
   enable-background="new 0 0 100 100"
   xml:space="preserve"
   id="svg2"
   inkscape:version="0.91 r13725"
   sodipodi:docname="noun_339787_cc.svg"
   width="60"
   height="60"><metadata
     id="metadata18"><rdf:RDF><cc:Work
         rdf:about=""><dc:format>image/svg+xml</dc:format><dc:type
           rdf:resource="http://purl.org/dc/dcmitype/StillImage" /><dc:title></dc:title></cc:Work></rdf:RDF></metadata><defs
     id="defs16" /><sodipodi:namedview
     pagecolor="#ffffff"
     bordercolor="#666666"
     borderopacity="1"
     objecttolerance="10"
     gridtolerance="10"
     guidetolerance="10"
     inkscape:pageopacity="0"
     inkscape:pageshadow="2"
     inkscape:window-width="1120"
     inkscape:window-height="570"
     id="namedview14"
     showgrid="false"
     inkscape:zoom="1.888"
     inkscape:cx="50"
     inkscape:cy="62.5"
     inkscape:window-x="0"
     inkscape:window-y="0"
     inkscape:window-maximized="0"
     inkscape:current-layer="svg2" /><path
     d="M 56.911685,11.564869 C 55.790131,8.7420873 53.735001,7.0035624 50.965837,6.5364321 50.208315,6.4085783 49.343477,6.3000098 48.412706,6.2050124 45.696148,2.5472532 38.925442,0.47730864 33.65435,0.10017589 c -1.87136,-0.13356785 -5.492036,-0.13356785 -7.311492,0 C 21.057738,0.48945118 14.491844,2.300117 11.60835,6.1928698 10.671267,6.2907244 9.796609,6.4028642 9.0299685,6.5364321 6.2572972,7.018562 4.2028689,8.7570869 3.0876278,11.564155 0.04561507,19.220378 -0.46360819,30.567931 0.33950563,35.817076 c 0.49800069,3.253485 2.77968567,5.195575 6.10366507,5.195575 0.8150375,0 1.6265682,-0.04571 2.4437102,-0.107854 0.2020059,4.729873 2.7361981,8.032642 5.6596731,11.826826 0.52746,0.684268 1.067545,1.385677 1.609033,2.115658 2.341305,3.15563 4.09062,4.067748 6.692849,4.725588 1.128568,0.285706 3.291715,0.426417 6.593249,0.426417 0.179561,0 0.375254,-0.0021 0.561829,-0.0029 0.187978,0.0014 0.383671,0.0036 0.563933,0.0036 3.302937,0 5.466785,-0.139996 6.595353,-0.425703 2.603632,-0.659268 4.353649,-1.570672 6.694953,-4.726302 0.541489,-0.72998 1.082275,-1.432104 1.610437,-2.116372 2.922773,-3.79347 5.455562,-7.094095 5.658971,-11.821826 0.793996,0.06 1.594304,0.104283 2.429682,0.104283 3.32398,0 5.605665,-1.942091 6.103665,-5.195575 0.803114,-5.250574 0.293891,-16.598127 -2.748823,-24.253636 z M 26.445264,1.525852 c 1.735988,-0.1271395 5.3251,-0.1271395 7.11159,0 4.422387,0.3157058 9.935465,1.8420935 12.811244,4.5020223 C 40.703515,5.6107426 33.423586,5.6085998 29.437476,5.6085998 c -3.698532,0 -10.41593,7.142e-4 -15.780309,0.4021321 C 16.201179,3.6107961 20.891504,1.9344125 26.445264,1.525852 Z M 44.364171,51.84879 c -0.53237,0.69141 -1.078768,1.399962 -1.625166,2.1378 -2.10002,2.831352 -3.579993,3.610617 -5.914284,4.201316 -0.70141,0.177852 -2.340603,0.378561 -6.156271,0.382847 l 0,-0.005 c -0.228659,0.0021 -0.445395,0.0036 -0.660728,0.0043 -0.217437,-7.14e-4 -0.436276,-0.0021 -0.66704,-0.0043 l 0,0.005 c -3.809355,-0.0043 -5.451354,-0.204995 -6.152062,-0.383562 -2.331485,-0.589984 -3.811459,-1.369249 -5.912181,-4.200601 -0.546398,-0.737123 -1.092796,-1.444962 -1.624464,-2.136372 -2.783193,-3.61276 -5.193235,-6.75339 -5.363678,-11.066846 1.155221,-0.12214 2.343409,-0.279278 3.617169,-0.450702 3.82689,-0.514987 8.58946,-1.156398 15.533413,-1.156398 8.404288,0 13.189304,0.661411 17.033729,1.19354 1.137686,0.157138 2.201724,0.300706 3.256644,0.414988 -0.172547,4.312028 -2.58259,7.452658 -5.365081,11.06399 z M 58.274523,35.597082 c -0.550606,3.598475 -3.482498,3.987036 -4.71768,3.987036 -2.342006,0 -4.352245,-0.277849 -6.89766,-0.629983 -3.88651,-0.537128 -8.72343,-1.206396 -17.222408,-1.206396 -7.035838,0 -11.849611,0.64784 -15.716482,1.16854 -2.663251,0.358562 -4.9638742,0.668554 -7.2771223,0.668554 -1.2351821,0 -4.1663722,-0.388561 -4.71768,-3.987037 C 0.94832901,30.512218 1.4407184,19.517513 4.388041,12.101283 5.3110958,9.7777738 6.9979855,8.3406694 9.265642,7.9463943 14.48483,7.0385615 24.583723,7.0385615 29.436775,7.0385615 c 5.163776,0 15.910772,0 21.300402,0.9085471 2.260643,0.3814183 3.945429,1.8178084 4.874095,4.1541744 2.948024,7.41623 3.440413,18.410935 2.663251,23.495799 z"
     id="path4"
     inkscape:connector-curvature="0"
     style="fill:#ffffff" /><path
     d="m 25.611989,47.442479 -0.127656,1.422105 c 1.335483,0.124997 2.724274,0.187852 4.126392,0.187852 1.649013,0 3.269971,-0.08714 4.820085,-0.258564 L 34.278605,47.37391 c -2.774776,0.307134 -5.85186,0.331419 -8.666616,0.06857 z"
     id="path6"
     inkscape:connector-curvature="0"
     style="fill:#ffffff" /><path
     d="m 37.502984,21.734596 -13.993119,-6.00841 c -0.217437,-0.09357 -0.465034,-0.07 -0.660026,0.06285 -0.195693,0.13214 -0.31353,0.355705 -0.31353,0.594984 l 0,12.016821 c 0,0.23928 0.117837,0.462845 0.31353,0.594984 0.116434,0.07928 0.251104,0.119283 0.387879,0.119283 0.09259,0 0.185172,-0.01857 0.272849,-0.05643 l 13.993118,-6.008411 c 0.259522,-0.111425 0.428561,-0.370704 0.428561,-0.657839 0,-0.287135 -0.169741,-0.546414 -0.429262,-0.65784 z m -13.564558,5.589851 0,-9.864022 11.486282,4.932011 -11.486282,4.932011 z"
     id="path8"
     inkscape:connector-curvature="0"
     style="fill:#ffffff" /></svg>